<svg width="24" height="24" viewBox="0 0 24 24" fill="none" xmlns="http://www.w3.org/2000/svg">
<g id="apple-pay-logo-svgrepo-com 1" clip-path="url(#clip0_37_554)">
<path id="Vector" d="M4.54874 8.20947C4.82804 7.85037 5.02754 7.37156 4.96769 6.89276C4.54874 6.91271 4.04999 7.17206 3.75073 7.51122C3.49138 7.81047 3.25198 8.30922 3.31183 8.76807C3.79064 8.82792 4.24949 8.56857 4.54874 8.20947ZM4.96769 8.88777C4.28939 8.84787 3.71083 9.26683 3.39163 9.26683C3.07243 9.26683 2.57368 8.90772 2.03502 8.90772C1.33677 8.92767 0.698366 9.30673 0.339264 9.94513C-0.378941 11.202 0.139762 13.0573 0.857967 14.0748C1.19712 14.5736 1.61607 15.1322 2.15473 15.1122C2.67343 15.0923 2.87293 14.7731 3.49138 14.7731C4.10984 14.7731 4.28939 15.1122 4.84799 15.0923C5.4066 15.0723 5.7657 14.5935 6.10485 14.0748C6.50385 13.4963 6.66345 12.9376 6.66345 12.9177C6.6435 12.8977 5.5662 12.4987 5.5662 11.2618C5.54625 10.2244 6.4041 9.72568 6.444 9.70573C5.98515 8.98752 5.22704 8.90772 4.96769 8.88777Z" fill="black"/>
<g id="Group">
<path id="Vector_2" d="M10.8329 7.47131C12.3092 7.47131 13.3267 8.48877 13.3267 9.94513C13.3267 11.4214 12.2893 12.4389 10.793 12.4389H9.17706V15.0125H8V7.47131H10.8329ZM9.17706 11.4613H10.5137C11.5312 11.4613 12.1097 10.9027 12.1097 9.96508C12.1097 9.00747 11.5312 8.46882 10.5137 8.46882H9.15711V11.4613H9.17706ZM13.6259 13.4763C13.6259 12.5187 14.3641 11.9202 15.6808 11.8404L17.197 11.7606V11.3416C17.197 10.7232 16.7781 10.3641 16.0998 10.3641C15.4414 10.3641 15.0424 10.6833 14.9426 11.1621H13.8653C13.9252 10.1646 14.783 9.42643 16.1397 9.42643C17.4763 9.42643 18.3342 10.1247 18.3342 11.2419V15.0324H17.2569V14.1347H17.2369C16.9177 14.7531 16.2195 15.1322 15.5012 15.1322C14.384 15.1322 13.6259 14.4539 13.6259 13.4763ZM17.197 12.9775V12.5386L15.8404 12.6184C15.1621 12.6583 14.783 12.9576 14.783 13.4364C14.783 13.9152 15.182 14.2344 15.7805 14.2344C16.5786 14.2344 17.197 13.6958 17.197 12.9775ZM19.3317 17.0673V16.1496C19.4115 16.1696 19.611 16.1696 19.6908 16.1696C20.2095 16.1696 20.4888 15.9501 20.6683 15.3915C20.6683 15.3716 20.7681 15.0524 20.7681 15.0524L18.7731 9.54613H19.99L21.3865 14.0349H21.4065L22.803 9.54613H24L21.9451 15.3516C21.4663 16.6883 20.9277 17.1072 19.7905 17.1072C19.7107 17.0873 19.4314 17.0873 19.3317 17.0673Z" fill="black"/>
</g>
</g>
<defs>
<clipPath id="clip0_37_554">
<rect width="24" height="24" fill="white"/>
</clipPath>
</defs>
</svg>
