<?xml version="1.0" ?>

<!DOCTYPE svg  PUBLIC '-//W3C//DTD SVG 1.1//EN'  'http://www.w3.org/Graphics/SVG/1.1/DTD/svg11.dtd'>

<!-- Uploaded to: SVG Repo, www.svgrepo.com, Generator: SVG Repo Mixer Tools -->
<svg fill="#000000" width="800px" height="800px" viewBox="0 0 1069 1069" style="fill-rule:evenodd;clip-rule:evenodd;stroke-linejoin:round;stroke-miterlimit:2;" version="1.1" xml:space="preserve" xmlns="http://www.w3.org/2000/svg" xmlns:serif="http://www.serif.com/" xmlns:xlink="http://www.w3.org/1999/xlink">

<rect height="1066.67" id="Computer" style="fill:none;" width="1066.67" x="1.515" y="0.592"/>

<g>

<path d="M409.848,356.842l250,-0c17.248,-0 31.25,-14.003 31.25,-31.25c0,-17.248 -14.002,-31.25 -31.25,-31.25l-250,-0c-17.247,-0 -31.25,14.002 -31.25,31.25c0,17.247 14.003,31.25 31.25,31.25Z" style="fill-opacity:0.5;"/>

<path d="M232.765,815.175l0.001,0.615l0.003,0.615l0,0.067c0.267,40.755 13.098,80.157 36.339,113.007l0.352,0.495l0.353,0.494l0.354,0.493l0.356,0.492l0.358,0.491l0.359,0.49l0.361,0.489l0.362,0.488l0.364,0.487l0.366,0.486l0.367,0.485l0.369,0.484l0.37,0.483l0.372,0.482l0.373,0.48l0.375,0.48l0.376,0.479l0.378,0.477l0.38,0.477l0.381,0.475l0.382,0.475l0.384,0.473l0.386,0.472l0.387,0.471l0.389,0.47l0.39,0.469l0.392,0.468l0.394,0.467l0.395,0.466l0.396,0.464l0.398,0.464l0.4,0.462l0.401,0.461l0.402,0.46l0.404,0.459l0.406,0.458l0.407,0.457l0.409,0.455l0.41,0.455l0.411,0.453l0.414,0.452l0.414,0.451l0.417,0.45l0.417,0.448l0.42,0.448l0.42,0.446l0.423,0.445l0.423,0.444l0.426,0.443l0.426,0.441l0.429,0.441l0.429,0.439l0.432,0.438l0.432,0.437l0.434,0.435l0.436,0.434l0.437,0.433l0.438,0.431l0.439,0.43l0.44,0.428l0.442,0.427l0.443,0.425l0.444,0.424l0.445,0.422l0.446,0.421l0.447,0.419l0.449,0.418l0.45,0.416l0.451,0.415l0.452,0.413l0.453,0.412l0.454,0.41l0.456,0.409l0.457,0.407l0.458,0.405l0.458,0.404l0.461,0.403l0.461,0.401l0.462,0.4l0.463,0.398l0.465,0.396l0.466,0.395l0.466,0.393l0.468,0.392l0.469,0.391l0.47,0.388l0.471,0.388l0.473,0.385l0.473,0.384l0.474,0.383l0.476,0.381l0.476,0.38l0.478,0.378l0.478,0.376l0.48,0.375l0.481,0.373l0.482,0.372l0.483,0.37l0.483,0.369l0.485,0.367l0.486,0.365l0.487,0.364l0.488,0.363l0.489,0.36l0.49,0.36l0.491,0.357l0.492,0.356l0.494,0.355l0.494,0.353l0.495,0.351l0.496,0.35l0.497,0.348l0.498,0.347l0.499,0.345l0.5,0.343l0.501,0.342l0.502,0.341l0.503,0.338l0.503,0.337l0.505,0.336l0.506,0.334l0.507,0.332l0.507,0.331l0.509,0.329l0.509,0.327l0.511,0.326l0.511,0.325l0.513,0.322l0.513,0.321l0.514,0.32l0.515,0.318l0.516,0.316l0.517,0.315l0.518,0.313l0.519,0.311l0.519,0.31l0.521,0.308l0.521,0.306l0.522,0.305l0.523,0.304l0.524,0.301l0.525,0.3l0.526,0.299l0.527,0.296l0.527,0.295l0.528,0.294l0.53,0.292l0.53,0.29l0.53,0.289l0.532,0.286l0.533,0.286l0.533,0.283l0.534,0.282l0.535,0.281l0.536,0.278l0.537,0.277l0.537,0.276l0.538,0.273l0.539,0.273l0.54,0.27l0.541,0.269l0.541,0.267l0.543,0.265l0.543,0.264l0.543,0.262l0.545,0.26l0.545,0.259l0.546,0.257l0.547,0.256l0.548,0.253l0.548,0.252l0.549,0.251l0.55,0.248l0.551,0.247l0.551,0.246l0.552,0.243l0.553,0.242l0.554,0.24l0.554,0.239l0.555,0.237l0.556,0.235l0.556,0.233l0.557,0.232l0.558,0.23l0.559,0.229l0.559,0.226l0.56,0.225l0.56,0.223l0.562,0.222l0.562,0.22l0.562,0.218l0.564,0.216l0.564,0.215l0.564,0.213l0.566,0.211l0.566,0.21l0.566,0.208l0.568,0.206l0.567,0.204l0.569,0.203l0.569,0.201l0.57,0.199l0.57,0.198l0.572,0.195l0.571,0.194l0.573,0.193l0.573,0.19l0.573,0.189l0.574,0.187l0.575,0.185l0.575,0.184l0.576,0.182l0.577,0.18l0.577,0.178l0.578,0.177l0.578,0.174l0.579,0.174l0.579,0.171l0.58,0.169l0.581,0.168l0.581,0.166l0.581,0.165l0.583,0.162l0.582,0.161l0.584,0.159l0.583,0.157l0.585,0.156l0.585,0.153l0.585,0.152l0.586,0.15l0.586,0.149l0.587,0.146l0.588,0.145l0.588,0.143l0.588,0.141l0.589,0.14l0.59,0.137l0.59,0.136l0.59,0.134l0.591,0.133l0.591,0.13l0.592,0.129l0.593,0.127l0.593,0.125l0.593,0.123l0.594,0.122l0.594,0.12l0.594,0.118l0.595,0.116l0.596,0.114l0.596,0.112l0.596,0.111l0.597,0.109l0.597,0.107l0.598,0.105l0.598,0.104l0.599,0.101l0.599,0.1l0.599,0.098l0.6,0.096l0.6,0.095l0.6,0.092l0.601,0.091l0.602,0.088l0.601,0.087l0.602,0.086l0.603,0.083l0.603,0.081l0.603,0.08l0.603,0.078l0.604,0.076l0.605,0.074l0.604,0.072l0.605,0.071l0.605,0.068l0.606,0.067l0.606,0.065l0.606,0.063l0.607,0.061l0.607,0.059l0.607,0.058l0.608,0.056l0.608,0.053l0.608,0.052l0.609,0.05l0.608,0.048l0.609,0.047l0.61,0.044l0.61,0.043l0.61,0.04l0.61,0.039l0.61,0.037l0.611,0.035l0.611,0.033l0.612,0.031l0.611,0.03l0.612,0.027l0.612,0.026l0.612,0.024l0.613,0.022l0.613,0.019l0.613,0.019l0.613,0.016l0.614,0.014l0.614,0.012l0.614,0.011l0.614,0.008l0.614,0.007l0.615,0.005l0.615,0.003l0.615,0.001c66.181,-0 142.152,-0 208.333,-0l0.615,-0.001l0.615,-0.003l0.614,-0.005l0.615,-0.007l0.614,-0.008l0.614,-0.011l0.614,-0.012l0.613,-0.014l0.614,-0.016l0.613,-0.019l0.613,-0.019l0.612,-0.022l0.613,-0.024l0.612,-0.026l0.612,-0.027l0.611,-0.03l0.611,-0.031l0.612,-0.033l0.61,-0.035l0.611,-0.037l0.61,-0.039l0.61,-0.04l0.61,-0.043l0.609,-0.044l0.609,-0.047l0.609,-0.048l0.609,-0.05l0.608,-0.052l0.608,-0.053l0.607,-0.056l0.608,-0.058l0.607,-0.059l0.606,-0.061l0.607,-0.063l0.606,-0.065l0.605,-0.067l0.606,-0.068l0.604,-0.071l0.605,-0.072l0.604,-0.074l0.604,-0.076l0.604,-0.078l0.603,-0.08l0.603,-0.081l0.602,-0.083l0.602,-0.086l0.602,-0.087l0.601,-0.088l0.601,-0.091l0.601,-0.092l0.6,-0.095l0.6,-0.096l0.599,-0.098l0.599,-0.1l0.598,-0.101l0.599,-0.104l0.597,-0.105l0.598,-0.107l0.596,-0.109l0.597,-0.111l0.596,-0.112l0.595,-0.114l0.595,-0.117l0.595,-0.117l0.594,-0.12l0.594,-0.122l0.593,-0.123l0.593,-0.125l0.592,-0.127l0.592,-0.129l0.592,-0.13l0.591,-0.133l0.59,-0.134l0.59,-0.136l0.589,-0.137l0.589,-0.14l0.589,-0.141l0.588,-0.143l0.587,-0.145l0.587,-0.146l0.587,-0.149l0.586,-0.15l0.585,-0.152l0.585,-0.153l0.584,-0.156l0.584,-0.157l0.584,-0.159l0.582,-0.161l0.582,-0.162l0.582,-0.165l0.581,-0.166l0.581,-0.168l0.58,-0.169l0.579,-0.171l0.579,-0.174l0.578,-0.174l0.578,-0.177l0.577,-0.178l0.577,-0.18l0.576,-0.182l0.575,-0.184l0.575,-0.185l0.574,-0.187l0.573,-0.189l0.573,-0.191l0.573,-0.192l0.571,-0.194l0.571,-0.196l0.571,-0.197l0.57,-0.199l0.569,-0.201l0.568,-0.203l0.568,-0.204l0.568,-0.206l0.566,-0.208l0.566,-0.21l0.565,-0.211l0.565,-0.213l0.564,-0.215l0.563,-0.216l0.563,-0.218l0.562,-0.22l0.561,-0.222l0.561,-0.223l0.56,-0.225l0.559,-0.226l0.559,-0.229l0.558,-0.23l0.557,-0.232l0.556,-0.233l0.556,-0.235l0.555,-0.237l0.554,-0.239l0.554,-0.24l0.553,-0.242l0.552,-0.244l0.551,-0.245l0.551,-0.247l0.549,-0.248l0.55,-0.251l0.548,-0.252l0.548,-0.254l0.547,-0.255l0.546,-0.257l0.545,-0.259l0.545,-0.26l0.543,-0.262l0.543,-0.264l0.543,-0.265l0.541,-0.267l0.541,-0.269l0.539,-0.271l0.54,-0.272l0.538,-0.273l0.537,-0.276l0.537,-0.277l0.536,-0.278l0.535,-0.281l0.534,-0.282l0.533,-0.283l0.533,-0.286l0.531,-0.287l0.531,-0.288l0.53,-0.29l0.529,-0.292l0.529,-0.294l0.527,-0.295l0.527,-0.296l0.526,-0.299l0.524,-0.3l0.524,-0.302l0.524,-0.303l0.522,-0.305l0.521,-0.306l0.521,-0.308l0.519,-0.31l0.519,-0.312l0.518,-0.313l0.517,-0.314l0.516,-0.316l0.515,-0.318l0.514,-0.32l0.513,-0.321l0.512,-0.323l0.512,-0.324l0.51,-0.326l0.51,-0.327l0.509,-0.329l0.507,-0.331l0.507,-0.332l0.506,-0.334l0.504,-0.336l0.504,-0.337l0.503,-0.339l0.502,-0.34l0.501,-0.342l0.5,-0.343l0.499,-0.345l0.498,-0.347l0.497,-0.348l0.496,-0.35l0.495,-0.351l0.494,-0.353l0.493,-0.355l0.492,-0.356l0.492,-0.357l0.49,-0.36l0.489,-0.361l0.488,-0.362l0.487,-0.364l0.486,-0.365l0.484,-0.367l0.484,-0.369l0.483,-0.37l0.482,-0.372l0.481,-0.373l0.479,-0.375l0.479,-0.377l0.478,-0.378l0.476,-0.379l0.476,-0.381l0.474,-0.383l0.473,-0.384l0.472,-0.386l0.472,-0.387l0.47,-0.389l0.469,-0.39l0.467,-0.392l0.467,-0.393l0.466,-0.395l0.464,-0.397l0.464,-0.398l0.462,-0.399l0.461,-0.401l0.46,-0.403l0.459,-0.404l0.458,-0.405l0.457,-0.408l0.455,-0.408l0.455,-0.41l0.453,-0.412l0.452,-0.413l0.451,-0.415l0.45,-0.416l0.449,-0.418l0.447,-0.419l0.446,-0.421l0.445,-0.422l0.444,-0.424l0.443,-0.425l0.442,-0.427l0.44,-0.428l0.439,-0.43l0.438,-0.431l0.437,-0.433l0.435,-0.434l0.435,-0.436l0.432,-0.436l0.432,-0.438l0.429,-0.44l0.429,-0.44l0.426,-0.441l0.426,-0.443l0.423,-0.444l0.423,-0.445l0.42,-0.447l0.42,-0.447l0.417,-0.449l0.417,-0.449l0.414,-0.451l0.413,-0.452l0.412,-0.454l0.41,-0.454l0.409,-0.456l0.407,-0.456l0.406,-0.458l0.404,-0.459l0.402,-0.46l0.401,-0.461l0.4,-0.463l0.398,-0.463l0.396,-0.465l0.395,-0.465l0.394,-0.467l0.391,-0.468l0.391,-0.469l0.389,-0.47l0.387,-0.471l0.386,-0.472l0.384,-0.474l0.382,-0.474l0.381,-0.475l0.38,-0.477l0.378,-0.478l0.376,-0.478l0.375,-0.48l0.373,-0.481l0.372,-0.481l0.37,-0.483l0.369,-0.484l0.367,-0.485l0.366,-0.486l0.363,-0.487l0.363,-0.488l0.361,-0.489l0.359,-0.49l0.358,-0.491l0.356,-0.492l0.354,-0.493l0.353,-0.494l0.352,-0.495l0.349,-0.496l0.349,-0.497l0.346,-0.498l0.345,-0.499l0.344,-0.5l0.342,-0.501l0.34,-0.502l0.338,-0.503l0.338,-0.504l0.335,-0.505l0.334,-0.506l0.332,-0.506l0.331,-0.508l0.329,-0.509l0.328,-0.509l0.326,-0.511l0.324,-0.511l0.323,-0.512l0.321,-0.514l0.319,-0.514l0.318,-0.515l0.316,-0.516l0.315,-0.517l0.313,-0.518l0.311,-0.518l0.31,-0.52l0.308,-0.52l0.307,-0.522l0.305,-0.522l0.303,-0.523l0.301,-0.524l0.3,-0.525l0.299,-0.526l0.297,-0.526l0.295,-0.528l0.293,-0.528l0.292,-0.529l0.29,-0.53l0.289,-0.531l0.287,-0.532l0.285,-0.532l0.284,-0.534l0.282,-0.534l0.28,-0.535l0.279,-0.536l0.277,-0.536l0.275,-0.538l0.274,-0.538l0.272,-0.539l0.27,-0.54l0.269,-0.541l0.267,-0.541l0.265,-0.542l0.264,-0.543l0.262,-0.544l0.261,-0.545l0.258,-0.545l0.257,-0.546l0.256,-0.547l0.253,-0.548l0.252,-0.548l0.251,-0.549l0.248,-0.55l0.247,-0.551l0.246,-0.551l0.243,-0.552l0.242,-0.553l0.241,-0.554l0.238,-0.554l0.237,-0.555l0.235,-0.556l0.234,-0.556l0.231,-0.557l0.23,-0.558l0.229,-0.558l0.226,-0.56l0.225,-0.56l0.224,-0.56l0.221,-0.562l0.22,-0.562l0.218,-0.562l0.217,-0.564l0.214,-0.563l0.213,-0.565l0.212,-0.565l0.209,-0.566l0.208,-0.567l0.206,-0.567l0.204,-0.568l0.203,-0.569l0.201,-0.569l0.199,-0.57l0.198,-0.57l0.195,-0.571l0.194,-0.572l0.193,-0.572l0.19,-0.573l0.189,-0.574l0.187,-0.574l0.185,-0.575l0.184,-0.575l0.182,-0.576l0.18,-0.577l0.178,-0.577l0.177,-0.577l0.175,-0.579l0.173,-0.579l0.171,-0.579l0.17,-0.58l0.167,-0.58l0.167,-0.582l0.164,-0.581l0.162,-0.582l0.161,-0.583l0.159,-0.583l0.157,-0.584l0.156,-0.585l0.153,-0.585l0.152,-0.585l0.15,-0.586l0.149,-0.586l0.146,-0.587l0.145,-0.588l0.143,-0.588l0.141,-0.588l0.14,-0.589l0.138,-0.59l0.136,-0.59l0.134,-0.59l0.132,-0.591l0.13,-0.591l0.129,-0.592l0.127,-0.593l0.125,-0.592l0.123,-0.594l0.122,-0.593l0.12,-0.595l0.118,-0.594l0.116,-0.595l0.114,-0.596l0.113,-0.596l0.11,-0.596l0.109,-0.597l0.107,-0.597l0.105,-0.598l0.104,-0.598l0.101,-0.599l0.1,-0.599l0.098,-0.599l0.096,-0.6l0.095,-0.6l0.092,-0.6l0.091,-0.601l0.089,-0.602l0.087,-0.601l0.085,-0.602l0.083,-0.603l0.082,-0.603l0.079,-0.603l0.078,-0.603l0.076,-0.604l0.074,-0.605l0.072,-0.604l0.071,-0.605l0.068,-0.605l0.067,-0.606l0.065,-0.606l0.063,-0.606l0.061,-0.607l0.06,-0.607l0.057,-0.607l0.056,-0.608l0.053,-0.608l0.052,-0.608l0.05,-0.609l0.048,-0.608l0.047,-0.609l0.044,-0.61l0.043,-0.61l0.04,-0.61l0.039,-0.61l0.037,-0.61l0.035,-0.611l0.033,-0.611l0.031,-0.612l0.03,-0.611l0.027,-0.612l0.026,-0.612l0.024,-0.613l0.022,-0.612l0.02,-0.613l0.018,-0.613l0.016,-0.613l0.014,-0.614l0.012,-0.614l0.011,-0.614l0.008,-0.614l0.007,-0.614l0.005,-0.615l0.003,-0.615l0.001,-0.614l-0,-562.502c-0.001,-52.49 -20.853,-102.83 -57.969,-139.946c-37.116,-37.117 -87.457,-57.969 -139.948,-57.969c-66.181,0 -142.152,0 -208.333,0c-52.491,0 -102.832,20.852 -139.949,57.969c-37.116,37.116 -57.968,87.457 -57.968,139.948c-0,160.52 -0,401.98 -0,562.5Zm541.667,-145.833l-0,145.832l-0.001,0.422l-0.002,0.42l-0.003,0.421l-0.005,0.42l-0.006,0.42l-0.007,0.42l-0.008,0.42l-0.01,0.42l-0.011,0.42l-0.012,0.419l-0.014,0.42l-0.015,0.419l-0.016,0.419l-0.018,0.419l-0.019,0.418l-0.02,0.419l-0.021,0.418l-0.023,0.418l-0.024,0.418l-0.025,0.418l-0.027,0.417l-0.027,0.418l-0.03,0.417l-0.03,0.417l-0.032,0.417l-0.033,0.416l-0.034,0.416l-0.035,0.417l-0.037,0.416l-0.038,0.415l-0.039,0.416l-0.041,0.415l-0.042,0.415l-0.043,0.415l-0.044,0.415l-0.046,0.414l-0.047,0.414l-0.048,0.414l-0.05,0.414l-0.05,0.413l-0.052,0.413l-0.054,0.413l-0.054,0.413l-0.056,0.413l-0.057,0.412l-0.058,0.412l-0.06,0.411l-0.06,0.412l-0.062,0.411l-0.064,0.411l-0.064,0.41l-0.066,0.411l-0.067,0.41l-0.068,0.41l-0.07,0.409l-0.071,0.409l-0.072,0.409l-0.073,0.409l-0.074,0.408l-0.076,0.408l-0.077,0.408l-0.078,0.408l-0.08,0.407l-0.08,0.407l-0.082,0.406l-0.083,0.407l-0.085,0.405l-0.085,0.406l-0.087,0.405l-0.088,0.405l-0.09,0.405l-0.09,0.404l-0.092,0.404l-0.093,0.404l-0.094,0.403l-0.095,0.403l-0.097,0.403l-0.098,0.402l-0.099,0.402l-0.1,0.402l-0.102,0.401l-0.103,0.401l-0.104,0.4l-0.105,0.401l-0.106,0.399l-0.108,0.4l-0.108,0.399l-0.11,0.399l-0.112,0.398l-0.112,0.398l-0.114,0.398l-0.114,0.397l-0.116,0.397l-0.118,0.396l-0.118,0.396l-0.12,0.396l-0.121,0.395l-0.122,0.395l-0.123,0.394l-0.124,0.394l-0.126,0.394l-0.127,0.393l-0.128,0.393l-0.129,0.393l-0.13,0.392l-0.132,0.391l-0.132,0.391l-0.134,0.391l-0.135,0.39l-0.137,0.39l-0.137,0.39l-0.139,0.389l-0.14,0.388l-0.141,0.388l-0.142,0.388l-0.143,0.387l-0.145,0.387l-0.146,0.387l-0.147,0.385l-0.148,0.386l-0.149,0.385l-0.15,0.384l-0.152,0.384l-0.153,0.384l-0.154,0.383l-0.155,0.383l-0.156,0.382l-0.157,0.382l-0.159,0.381l-0.16,0.38l-0.16,0.381l-0.163,0.379l-0.163,0.38l-0.164,0.378l-0.166,0.379l-0.166,0.377l-0.168,0.378l-0.169,0.376l-0.17,0.377l-0.172,0.375l-0.172,0.376l-0.174,0.374l-0.174,0.374l-0.176,0.374l-0.177,0.373l-0.178,0.373l-0.18,0.372l-0.18,0.371l-0.182,0.371l-0.183,0.371l-0.183,0.37l-0.185,0.369l-0.187,0.369l-0.187,0.368l-0.188,0.368l-0.19,0.367l-0.19,0.367l-0.192,0.366l-0.193,0.365l-0.194,0.365l-0.195,0.365l-0.197,0.363l-0.197,0.364l-0.199,0.362l-0.199,0.362l-0.201,0.362l-0.202,0.361l-0.203,0.36l-0.204,0.36l-0.206,0.359l-0.206,0.358l-0.208,0.358l-0.208,0.358l-0.21,0.356l-0.211,0.356l-0.212,0.356l-0.213,0.355l-0.214,0.354l-0.215,0.354l-0.217,0.353l-0.217,0.352l-0.219,0.352l-0.219,0.351l-0.221,0.351l-0.222,0.35l-0.223,0.349l-0.224,0.349l-0.225,0.348l-0.226,0.347l-0.228,0.347l-0.228,0.346l-0.23,0.345l-0.23,0.345l-0.232,0.344l-0.233,0.343l-0.234,0.343l-0.235,0.342l-0.236,0.342l-0.237,0.34l-0.238,0.34l-0.24,0.34l-0.24,0.339l-0.242,0.338l-0.242,0.337l-0.244,0.337l-0.245,0.336l-0.245,0.335l-0.247,0.335l-0.248,0.333l-0.249,0.334l-0.25,0.332l-0.251,0.332l-0.253,0.331l-0.253,0.33l-0.254,0.33l-0.256,0.329l-0.256,0.328l-0.258,0.328l-0.258,0.326l-0.26,0.326l-0.261,0.326l-0.262,0.324l-0.262,0.324l-0.264,0.323l-0.265,0.323l-0.266,0.321l-0.267,0.321l-0.268,0.32l-0.27,0.32l-0.27,0.318l-0.271,0.318l-0.272,0.317l-0.274,0.316l-0.274,0.316l-0.276,0.315l-0.276,0.314l-0.278,0.313l-0.278,0.312l-0.28,0.312l-0.28,0.311l-0.282,0.31l-0.283,0.31l-0.284,0.308l-0.284,0.308l-0.286,0.307l-0.287,0.306l-0.288,0.305l-0.289,0.305l-0.29,0.304l-0.291,0.302l-0.292,0.303l-0.293,0.301l-0.294,0.3l-0.295,0.3l-0.296,0.299l-0.297,0.298l-0.298,0.297l-0.299,0.296l-0.299,0.295l-0.301,0.294l-0.301,0.293l-0.302,0.292l-0.303,0.291l-0.304,0.29l-0.305,0.289l-0.305,0.288l-0.306,0.287l-0.307,0.286l-0.308,0.284l-0.308,0.284l-0.31,0.283l-0.31,0.281l-0.311,0.281l-0.311,0.28l-0.313,0.278l-0.313,0.278l-0.314,0.276l-0.315,0.276l-0.315,0.274l-0.317,0.273l-0.317,0.273l-0.318,0.271l-0.318,0.27l-0.32,0.269l-0.32,0.268l-0.321,0.268l-0.321,0.266l-0.323,0.265l-0.323,0.263l-0.323,0.263l-0.325,0.262l-0.325,0.261l-0.326,0.259l-0.327,0.259l-0.328,0.258l-0.328,0.256l-0.329,0.256l-0.329,0.254l-0.331,0.253l-0.331,0.252l-0.332,0.252l-0.332,0.25l-0.333,0.249l-0.334,0.248l-0.335,0.246l-0.335,0.246l-0.336,0.245l-0.337,0.244l-0.337,0.242l-0.338,0.242l-0.339,0.24l-0.339,0.239l-0.34,0.239l-0.341,0.237l-0.342,0.236l-0.342,0.235l-0.342,0.234l-0.344,0.233l-0.344,0.231l-0.345,0.231l-0.345,0.23l-0.346,0.228l-0.347,0.227l-0.347,0.227l-0.348,0.225l-0.349,0.224l-0.349,0.223l-0.35,0.222l-0.351,0.221l-0.351,0.219l-0.352,0.219l-0.352,0.217l-0.353,0.217l-0.354,0.215l-0.354,0.214l-0.355,0.213l-0.355,0.212l-0.356,0.211l-0.357,0.21l-0.358,0.208l-0.357,0.208l-0.359,0.206l-0.359,0.206l-0.36,0.204l-0.36,0.203l-0.361,0.202l-0.361,0.2l-0.363,0.2l-0.362,0.199l-0.363,0.197l-0.364,0.196l-0.365,0.196l-0.364,0.194l-0.366,0.193l-0.366,0.191l-0.367,0.191l-0.367,0.19l-0.368,0.188l-0.368,0.187l-0.369,0.186l-0.369,0.185l-0.37,0.184l-0.37,0.183l-0.371,0.182l-0.372,0.18l-0.372,0.179l-0.373,0.179l-0.373,0.177l-0.373,0.176l-0.375,0.174l-0.374,0.174l-0.375,0.172l-0.376,0.172l-0.376,0.17l-0.377,0.169l-0.377,0.168l-0.378,0.166l-0.378,0.166l-0.379,0.164l-0.379,0.163l-0.38,0.162l-0.38,0.161l-0.381,0.16l-0.381,0.159l-0.382,0.157l-0.382,0.156l-0.383,0.155l-0.383,0.154l-0.383,0.153l-0.384,0.152l-0.385,0.15l-0.385,0.149l-0.385,0.148l-0.386,0.147l-0.387,0.146l-0.386,0.145l-0.388,0.143l-0.387,0.142l-0.388,0.141l-0.389,0.14l-0.389,0.139l-0.39,0.137l-0.389,0.136l-0.391,0.136l-0.39,0.134l-0.392,0.132l-0.391,0.132l-0.392,0.13l-0.393,0.129l-0.392,0.128l-0.394,0.127l-0.393,0.126l-0.394,0.124l-0.395,0.123l-0.395,0.122l-0.395,0.121l-0.396,0.12l-0.396,0.118l-0.396,0.117l-0.397,0.117l-0.397,0.114l-0.398,0.114l-0.398,0.112l-0.398,0.112l-0.399,0.11l-0.399,0.108l-0.399,0.108l-0.4,0.106l-0.4,0.105l-0.401,0.104l-0.401,0.103l-0.401,0.102l-0.402,0.1l-0.402,0.099l-0.402,0.098l-0.403,0.096l-0.403,0.096l-0.403,0.094l-0.404,0.093l-0.404,0.092l-0.404,0.09l-0.405,0.09l-0.405,0.088l-0.405,0.087l-0.405,0.085l-0.406,0.085l-0.407,0.083l-0.406,0.082l-0.407,0.08l-0.407,0.08l-0.408,0.078l-0.407,0.077l-0.408,0.076l-0.409,0.074l-0.408,0.073l-0.409,0.072l-0.41,0.071l-0.409,0.07l-0.41,0.068l-0.41,0.067l-0.41,0.066l-0.411,0.064l-0.411,0.064l-0.411,0.062l-0.411,0.06l-0.412,0.06l-0.412,0.058l-0.412,0.057l-0.413,0.056l-0.412,0.054l-0.413,0.054l-0.414,0.052l-0.413,0.05l-0.414,0.05l-0.414,0.048l-0.414,0.047l-0.414,0.046l-0.415,0.044l-0.415,0.043l-0.415,0.042l-0.415,0.041l-0.416,0.039l-0.415,0.038l-0.416,0.037l-0.416,0.035l-0.417,0.034l-0.416,0.033l-0.417,0.032l-0.417,0.03l-0.417,0.03l-0.417,0.027l-0.418,0.027l-0.418,0.025l-0.418,0.024l-0.418,0.023l-0.418,0.021l-0.419,0.02l-0.418,0.019l-0.419,0.018l-0.419,0.016l-0.419,0.015l-0.419,0.014l-0.42,0.012l-0.42,0.011l-0.419,0.01l-0.42,0.008l-0.42,0.007l-0.421,0.006l-0.42,0.005l-0.421,0.003l-0.42,0.002l-0.421,0.001l-208.333,-0l-0.421,-0.001l-0.421,-0.002l-0.42,-0.003l-0.421,-0.005l-0.42,-0.006l-0.42,-0.007l-0.42,-0.008l-0.42,-0.01l-0.419,-0.011l-0.42,-0.012l-0.419,-0.014l-0.419,-0.015l-0.419,-0.016l-0.419,-0.018l-0.419,-0.019l-0.418,-0.02l-0.419,-0.021l-0.418,-0.023l-0.418,-0.024l-0.417,-0.025l-0.418,-0.027l-0.417,-0.027l-0.417,-0.03l-0.417,-0.03l-0.417,-0.032l-0.417,-0.033l-0.416,-0.034l-0.416,-0.035l-0.416,-0.037l-0.416,-0.038l-0.415,-0.039l-0.416,-0.041l-0.415,-0.042l-0.415,-0.043l-0.414,-0.044l-0.415,-0.046l-0.414,-0.047l-0.414,-0.048l-0.413,-0.05l-0.414,-0.05l-0.413,-0.052l-0.413,-0.054l-0.413,-0.054l-0.412,-0.056l-0.412,-0.057l-0.412,-0.058l-0.412,-0.06l-0.411,-0.06l-0.411,-0.062l-0.411,-0.064l-0.411,-0.064l-0.41,-0.066l-0.41,-0.067l-0.41,-0.068l-0.41,-0.07l-0.409,-0.071l-0.409,-0.072l-0.409,-0.073l-0.408,-0.074l-0.408,-0.076l-0.408,-0.077l-0.407,-0.078l-0.407,-0.08l-0.407,-0.08l-0.407,-0.082l-0.406,-0.083l-0.406,-0.085l-0.406,-0.085l-0.405,-0.087l-0.405,-0.088l-0.404,-0.09l-0.405,-0.09l-0.404,-0.092l-0.403,-0.093l-0.404,-0.094l-0.403,-0.096l-0.402,-0.096l-0.403,-0.098l-0.402,-0.099l-0.401,-0.1l-0.401,-0.102l-0.401,-0.103l-0.401,-0.104l-0.4,-0.105l-0.4,-0.106l-0.399,-0.108l-0.399,-0.108l-0.399,-0.11l-0.399,-0.112l-0.398,-0.112l-0.397,-0.114l-0.397,-0.114l-0.397,-0.117l-0.397,-0.117l-0.396,-0.118l-0.395,-0.12l-0.396,-0.121l-0.394,-0.122l-0.395,-0.123l-0.394,-0.124l-0.394,-0.126l-0.393,-0.127l-0.393,-0.128l-0.392,-0.129l-0.392,-0.13l-0.392,-0.132l-0.391,-0.132l-0.391,-0.134l-0.39,-0.136l-0.39,-0.136l-0.389,-0.137l-0.389,-0.139l-0.389,-0.14l-0.388,-0.141l-0.388,-0.142l-0.387,-0.143l-0.387,-0.145l-0.386,-0.146l-0.386,-0.147l-0.385,-0.148l-0.385,-0.149l-0.385,-0.15l-0.384,-0.152l-0.384,-0.153l-0.383,-0.154l-0.382,-0.155l-0.382,-0.156l-0.382,-0.157l-0.381,-0.159l-0.381,-0.16l-0.38,-0.161l-0.38,-0.162l-0.379,-0.163l-0.379,-0.164l-0.378,-0.166l-0.378,-0.166l-0.377,-0.168l-0.377,-0.169l-0.376,-0.17l-0.376,-0.172l-0.375,-0.172l-0.375,-0.174l-0.374,-0.174l-0.374,-0.176l-0.373,-0.177l-0.372,-0.179l-0.372,-0.179l-0.372,-0.18l-0.371,-0.182l-0.37,-0.183l-0.37,-0.184l-0.37,-0.185l-0.369,-0.186l-0.368,-0.187l-0.368,-0.188l-0.367,-0.19l-0.366,-0.191l-0.366,-0.191l-0.366,-0.193l-0.365,-0.194l-0.364,-0.196l-0.364,-0.196l-0.363,-0.197l-0.363,-0.199l-0.362,-0.2l-0.361,-0.2l-0.361,-0.202l-0.361,-0.203l-0.359,-0.204l-0.359,-0.206l-0.359,-0.206l-0.358,-0.208l-0.357,-0.208l-0.357,-0.21l-0.356,-0.211l-0.356,-0.212l-0.354,-0.213l-0.355,-0.214l-0.353,-0.215l-0.353,-0.217l-0.353,-0.217l-0.352,-0.219l-0.351,-0.219l-0.35,-0.221l-0.35,-0.222l-0.35,-0.223l-0.348,-0.224l-0.348,-0.225l-0.347,-0.227l-0.347,-0.227l-0.346,-0.228l-0.346,-0.23l-0.344,-0.231l-0.344,-0.231l-0.344,-0.233l-0.343,-0.234l-0.342,-0.235l-0.341,-0.236l-0.341,-0.237l-0.34,-0.239l-0.339,-0.239l-0.339,-0.24l-0.338,-0.242l-0.338,-0.242l-0.336,-0.244l-0.336,-0.245l-0.336,-0.246l-0.334,-0.246l-0.334,-0.248l-0.333,-0.249l-0.333,-0.25l-0.331,-0.252l-0.332,-0.252l-0.33,-0.253l-0.33,-0.254l-0.328,-0.256l-0.329,-0.256l-0.327,-0.258l-0.327,-0.259l-0.326,-0.259l-0.325,-0.261l-0.325,-0.262l-0.324,-0.263l-0.323,-0.263l-0.322,-0.265l-0.322,-0.266l-0.321,-0.268l-0.32,-0.268l-0.319,-0.269l-0.319,-0.27l-0.318,-0.271l-0.317,-0.273l-0.316,-0.273l-0.316,-0.274l-0.314,-0.276l-0.314,-0.276l-0.314,-0.278l-0.312,-0.278l-0.312,-0.28l-0.311,-0.281l-0.31,-0.281l-0.309,-0.283l-0.309,-0.284l-0.307,-0.284l-0.307,-0.286l-0.306,-0.287l-0.306,-0.288l-0.304,-0.289l-0.304,-0.29l-0.303,-0.291l-0.302,-0.292l-0.301,-0.293l-0.301,-0.294l-0.3,-0.295l-0.298,-0.296l-0.298,-0.297l-0.298,-0.298l-0.296,-0.299l-0.295,-0.3l-0.294,-0.3l-0.293,-0.301l-0.292,-0.303l-0.291,-0.302l-0.29,-0.304l-0.289,-0.305l-0.287,-0.305l-0.287,-0.306l-0.286,-0.307l-0.285,-0.308l-0.284,-0.308l-0.282,-0.31l-0.282,-0.31l-0.281,-0.311l-0.279,-0.312l-0.279,-0.312l-0.277,-0.313l-0.277,-0.314l-0.275,-0.315l-0.275,-0.316l-0.273,-0.316l-0.272,-0.317l-0.272,-0.318l-0.27,-0.318l-0.269,-0.32l-0.268,-0.32l-0.267,-0.321l-0.266,-0.321l-0.265,-0.323l-0.264,-0.323l-0.263,-0.324l-0.262,-0.324l-0.26,-0.326l-0.26,-0.326l-0.259,-0.326l-0.257,-0.328l-0.257,-0.328l-0.255,-0.329l-0.254,-0.33l-0.254,-0.33l-0.252,-0.331l-0.251,-0.332l-0.25,-0.332l-0.249,-0.334l-0.248,-0.333l-0.247,-0.335l-0.246,-0.335l-0.244,-0.336l-0.244,-0.337l-0.243,-0.337l-0.241,-0.338l-0.241,-0.339l-0.239,-0.34l-0.238,-0.34l-0.237,-0.34l-0.236,-0.342l-0.235,-0.342l-0.234,-0.343l-0.233,-0.343l-0.232,-0.344l-0.23,-0.345l-0.23,-0.345l-0.229,-0.346l-0.227,-0.347l-0.226,-0.347l-0.225,-0.348l-0.224,-0.349l-0.223,-0.349l-0.222,-0.35l-0.221,-0.351l-0.22,-0.351l-0.218,-0.352l-0.218,-0.352l-0.216,-0.353l-0.215,-0.354l-0.215,-0.354l-0.213,-0.355l-0.212,-0.356l-0.211,-0.356l-0.209,-0.356l-0.209,-0.358l-0.207,-0.358l-0.207,-0.358l-0.205,-0.359l-0.204,-0.36l-0.203,-0.36l-0.202,-0.361l-0.201,-0.362l-0.2,-0.362l-0.198,-0.362l-0.198,-0.364l-0.196,-0.363l-0.195,-0.365l-0.194,-0.365l-0.193,-0.365l-0.192,-0.366l-0.191,-0.367l-0.189,-0.367l-0.189,-0.368l-0.187,-0.368l-0.186,-0.369l-0.185,-0.369l-0.184,-0.37l-0.183,-0.371l-0.181,-0.371l-0.181,-0.371l-0.179,-0.372l-0.178,-0.373l-0.177,-0.373l-0.176,-0.374l-0.175,-0.374l-0.173,-0.374l-0.173,-0.376l-0.171,-0.375l-0.17,-0.377l-0.169,-0.376l-0.168,-0.378l-0.167,-0.377l-0.165,-0.379l-0.165,-0.378l-0.163,-0.38l-0.162,-0.379l-0.161,-0.381l-0.16,-0.38l-0.158,-0.381l-0.158,-0.382l-0.156,-0.382l-0.155,-0.383l-0.154,-0.383l-0.153,-0.384l-0.151,-0.384l-0.151,-0.384l-0.149,-0.385l-0.148,-0.386l-0.147,-0.385l-0.145,-0.387l-0.145,-0.387l-0.143,-0.387l-0.143,-0.388l-0.141,-0.388l-0.139,-0.388l-0.139,-0.389l-0.138,-0.39l-0.136,-0.39l-0.135,-0.39l-0.134,-0.391l-0.133,-0.391l-0.131,-0.391l-0.131,-0.392l-0.129,-0.393l-0.128,-0.393l-0.127,-0.393l-0.125,-0.394l-0.125,-0.394l-0.123,-0.394l-0.122,-0.395l-0.121,-0.395l-0.119,-0.396l-0.119,-0.396l-0.117,-0.396l-0.116,-0.397l-0.115,-0.397l-0.113,-0.398l-0.113,-0.398l-0.111,-0.398l-0.11,-0.399l-0.109,-0.399l-0.107,-0.4l-0.107,-0.399l-0.105,-0.401l-0.104,-0.4l-0.103,-0.401l-0.101,-0.401l-0.1,-0.402l-0.099,-0.402l-0.098,-0.402l-0.097,-0.403l-0.095,-0.403l-0.095,-0.403l-0.092,-0.404l-0.092,-0.404l-0.091,-0.404l-0.089,-0.405l-0.088,-0.405l-0.087,-0.405l-0.086,-0.406l-0.084,-0.406l-0.083,-0.406l-0.082,-0.406l-0.081,-0.407l-0.079,-0.407l-0.078,-0.408l-0.077,-0.408l-0.076,-0.408l-0.075,-0.408l-0.073,-0.409l-0.072,-0.409l-0.071,-0.409l-0.069,-0.409l-0.068,-0.41l-0.067,-0.41l-0.066,-0.411l-0.065,-0.41l-0.063,-0.411l-0.062,-0.411l-0.061,-0.412l-0.059,-0.411l-0.059,-0.412l-0.057,-0.413l-0.055,-0.412l-0.055,-0.413l-0.053,-0.413l-0.052,-0.413l-0.051,-0.413l-0.049,-0.414l-0.048,-0.414l-0.047,-0.414l-0.046,-0.414l-0.044,-0.415l-0.044,-0.415l-0.041,-0.415l-0.041,-0.415l-0.039,-0.416l-0.038,-0.415l-0.037,-0.416l-0.036,-0.417l-0.034,-0.416l-0.033,-0.416l-0.031,-0.417l-0.031,-0.417l-0.029,-0.417l-0.028,-0.418l-0.026,-0.417l-0.026,-0.418l-0.024,-0.418l-0.022,-0.418l-0.022,-0.418l-0.02,-0.419l-0.019,-0.418l-0.017,-0.419l-0.016,-0.419l-0.015,-0.419l-0.014,-0.42l-0.012,-0.419l-0.011,-0.42l-0.01,-0.42l-0.009,-0.42l-0.007,-0.42l-0.006,-0.42l-0.004,-0.42l-0.003,-0.421l-0.002,-0.42l-0.001,-0.422l-0,-145.832c-0,-13.814 5.487,-27.061 15.255,-36.829c9.767,-9.767 23.015,-15.255 36.828,-15.255c101.846,0 273.155,0 375,0c13.814,0 27.061,5.488 36.829,15.255c9.767,9.768 15.255,23.015 15.255,36.829Zm-437.5,19.932l-0,63.401c-0,17.247 14.002,31.25 31.25,31.25c17.247,-0 31.25,-14.003 31.25,-31.25l-0,-63.401c-0,-17.248 -14.003,-31.25 -31.25,-31.25c-17.248,-0 -31.25,14.002 -31.25,31.25Zm83.333,-0l-0,63.401c-0,17.247 14.003,31.25 31.25,31.25c17.247,-0 31.25,-14.003 31.25,-31.25l-0,-63.401c-0,-17.248 -14.003,-31.25 -31.25,-31.25c-17.247,-0 -31.25,14.002 -31.25,31.25Zm354.167,-121.995l-0,-314.604c-0,-35.915 -14.267,-70.359 -39.663,-95.754c-25.396,-25.396 -59.839,-39.663 -95.754,-39.663c-66.181,0 -142.152,0 -208.333,0c-35.915,0 -70.359,14.267 -95.754,39.663c-25.396,25.395 -39.663,59.839 -39.663,95.754l-0,314.604c15.981,-8.154 33.807,-12.521 52.083,-12.521c101.846,0 273.155,0 375,0c18.277,0 36.103,4.367 52.084,12.521Zm-186.107,-387.521c18.253,0 33.073,14.82 33.073,33.074c-0,18.253 -14.82,33.073 -33.073,33.073c-18.254,-0 -33.074,-14.82 -33.074,-33.073c0,-18.254 14.82,-33.074 33.074,-33.074Zm104.166,0c18.254,0 33.074,14.82 33.074,33.074c-0,18.253 -14.82,33.073 -33.074,33.073c-18.253,-0 -33.073,-14.82 -33.073,-33.073c0,-18.254 14.82,-33.074 33.073,-33.074Z"/>

</g>

</svg>