<svg width="36" height="36" viewBox="0 0 36 36" fill="none" xmlns="http://www.w3.org/2000/svg">
<path d="M18 34.3032C9.34138 34.3032 0 28.9338 0 17.1516C0 5.36947 9.34138 0 18 0C22.8103 0 27.2483 1.56482 30.5379 4.41831C34.1069 7.54794 36 11.9663 36 17.1516C36 22.337 34.1069 26.7246 30.5379 29.8543C27.2483 32.7078 22.7793 34.3032 18 34.3032Z" fill="url(#paint0_radial_73_219)"/>
<path d="M32.8623 6.95578C34.5164 9.59449 35.3792 12.7364 35.3792 16.2312C35.3792 21.4165 33.4861 25.8042 29.9171 28.9338C26.6274 31.7873 22.1585 33.3828 17.3792 33.3828C11.7743 33.3828 5.884 31.1276 2.42676 26.3442C5.76607 31.7627 12.0443 34.3033 17.9999 34.3033C22.7792 34.3033 27.2481 32.7078 30.5378 29.8543C34.1068 26.7246 35.9999 22.337 35.9999 17.1516C35.9999 13.2427 34.923 9.76938 32.8623 6.95578Z" fill="#EB8F00"/>
<path d="M18 34.3032C9.34138 34.3032 0 28.9338 0 17.1516C0 5.36947 9.34138 0 18 0C22.8103 0 27.2483 1.56482 30.5379 4.41831C34.1069 7.54794 36 11.9663 36 17.1516C36 22.337 34.1069 26.7246 30.5379 29.8543C27.2483 32.7078 22.7793 34.3032 18 34.3032Z" fill="url(#paint1_radial_73_219)"/>
<path d="M26.1123 22.1222C23.8405 21.4012 21.0816 21.0177 18.124 21.0177C15.1199 21.0177 12.3423 21.438 10.0333 22.1683C9.15813 23.6012 8.62744 25.2611 8.62744 27.0315C8.62744 28.5349 10.1481 29.4247 11.4826 28.8111C13.1585 28.044 15.6102 27.2769 18.124 27.2769C20.6378 27.2769 23.1205 28.044 24.7654 28.8111C26.0999 29.4247 27.6205 28.5349 27.6205 27.0315C27.6205 25.2427 27.0402 23.5643 26.1123 22.1222Z" fill="#422B0D"/>
<path d="M26.1124 22.1222C24.2379 19.2074 20.9452 18.471 18.1241 18.471C15.0579 18.471 11.8241 19.2288 10.0334 22.1682C12.3424 21.438 15.12 21.0176 18.1241 21.0176C21.0786 21.0176 23.8407 21.4012 26.1124 22.1222Z" fill="white"/>
<path d="M18.1055 18.0107C19.1917 18.0384 20.2872 18.1365 21.3517 18.4096C22.4193 18.6674 23.4558 19.1092 24.3651 19.7412C25.2651 20.3887 26.0224 21.2294 26.5406 22.1867C27.0682 23.1286 27.4531 24.1504 27.6455 25.2089C27.7448 25.7366 27.7975 26.2736 27.7975 26.8105C27.8068 27.0683 27.782 27.372 27.7044 27.6451C27.6237 27.9213 27.481 28.1759 27.2979 28.3968C26.9317 28.8417 26.3731 29.1056 25.8051 29.1455C25.5227 29.1608 25.2372 29.124 24.9703 29.0381C24.7003 28.9399 24.4737 28.8203 24.2317 28.7159C22.3075 27.8752 20.2251 27.3291 18.1055 27.28C20.2282 27.2524 22.3448 27.7218 24.3248 28.5042C24.5731 28.5993 24.8213 28.719 25.051 28.7926C25.29 28.8601 25.5413 28.8816 25.7834 28.8601C26.2706 28.808 26.7362 28.5625 27.0279 28.1821C27.1737 27.9918 27.2855 27.777 27.3413 27.5469C27.3972 27.3107 27.4096 27.0867 27.3941 26.8228C27.3724 26.3104 27.3041 25.8011 27.1924 25.304C26.972 24.3068 26.5717 23.3495 26.041 22.4781C25.5196 21.6037 24.8058 20.8734 23.971 20.315C23.1237 19.7719 22.1679 19.4007 21.1686 19.1982C20.1724 18.9834 19.1389 18.9251 18.1055 18.9374V18.0107Z" fill="#EB8F00"/>
<path d="M18.1829 18.9312C17.1526 18.919 16.116 18.9773 15.1198 19.192C14.1205 19.3945 13.1647 19.7658 12.3174 20.3089C11.4826 20.8673 10.7688 21.5976 10.2474 22.472C9.71363 23.3434 9.31639 24.2976 9.09605 25.2979C8.98432 25.798 8.91294 26.3043 8.89432 26.8167C8.8757 27.0805 8.89122 27.3045 8.94708 27.5408C9.00605 27.7709 9.11777 27.9857 9.26053 28.1759C9.55225 28.5564 10.0178 28.8018 10.505 28.854C10.7502 28.8755 10.9985 28.854 11.2374 28.7865C11.4671 28.7129 11.7154 28.5963 11.9636 28.4981C13.9405 27.7157 16.0602 27.2462 18.1829 27.2738C16.0602 27.3229 13.9778 27.8691 12.0567 28.7098C11.8147 28.8141 11.5881 28.9338 11.3181 29.032C11.0512 29.1179 10.7657 29.1547 10.4833 29.1394C9.91846 29.1025 9.35984 28.8356 8.99053 28.3907C8.80743 28.1698 8.66467 27.9151 8.58398 27.639C8.50639 27.369 8.48156 27.0652 8.49087 26.8044C8.49398 26.2675 8.54674 25.7336 8.64294 25.2028C8.83846 24.1442 9.22018 23.1225 9.74777 22.1805C10.2691 21.2263 11.0264 20.3825 11.9233 19.7351C12.8326 19.103 13.8691 18.6582 14.9367 18.4035C16.0043 18.1335 17.0998 18.0322 18.1829 18.0046V18.9312Z" fill="#EB8F00"/>
<path d="M32.8623 6.95578C34.5164 9.59449 35.3792 12.7364 35.3792 16.2312C35.3792 21.4165 33.4861 25.8042 29.9171 28.9338C26.6274 31.7873 22.1585 33.3828 17.3792 33.3828C11.7743 33.3828 5.884 31.1276 2.42676 26.3442C5.76607 31.7627 12.0443 34.3033 17.9999 34.3033C22.7792 34.3033 27.2481 32.7078 30.5378 29.8543C34.1068 26.7246 35.9999 22.337 35.9999 17.1516C35.9999 13.2427 34.923 9.76938 32.8623 6.95578Z" fill="#EB8F00"/>
<path d="M5.14858 11.9386C4.9872 11.9662 4.81962 11.9417 4.67686 11.8742C4.39445 11.7392 4.18031 11.4109 4.34169 10.9813C4.93445 9.46559 6.16031 8.19533 7.70583 7.48963C8.27996 7.22575 8.88203 7.05086 9.49962 6.96802C9.96203 6.91586 10.232 7.19507 10.2972 7.49269C10.3686 7.82407 10.2165 8.22908 9.78203 8.37022L9.74479 8.38249C8.07203 8.95319 6.57927 10.1222 5.65445 11.5858C5.5272 11.7944 5.341 11.9049 5.14858 11.9386Z" fill="#422B0D"/>
<path d="M30.3921 11.5858C29.4673 10.1222 27.9745 8.95322 26.3018 8.38252L26.2645 8.37025C25.83 8.23217 25.6749 7.82409 25.7494 7.49272C25.8145 7.19203 26.0876 6.91589 26.5469 6.96805C27.1614 7.04782 27.7666 7.22578 28.3407 7.48965C29.8863 8.19535 31.1121 9.46562 31.7049 10.9813C31.8663 11.4109 31.6521 11.7392 31.3697 11.8742C31.23 11.9417 31.0625 11.9663 30.898 11.9386C30.7056 11.9049 30.5194 11.7944 30.3921 11.5858Z" fill="#422B0D"/>
<path d="M32.94 31.91C32.94 30.9681 31.2176 30.1857 29.0544 30.1366L28.3872 14.0128C28.322 13.9637 28.2569 13.9054 28.2041 13.841C28.2041 13.841 28.1855 13.8164 28.1482 13.7735C28.1296 13.752 28.1079 13.7244 28.0831 13.6906C28.0551 13.6569 28.0272 13.6201 28.0024 13.6017C27.9496 13.5495 27.8844 13.4851 27.81 13.4114C27.7324 13.3347 27.6393 13.2519 27.5431 13.169C27.3444 13.0033 27.1086 12.8499 26.8603 12.7425C26.612 12.6413 26.3607 12.5799 26.1031 12.583H26.0627L25.9727 12.5861C25.892 12.5861 25.9075 12.5922 25.8827 12.5953C25.861 12.5922 25.7741 12.6137 25.7151 12.6229C25.591 12.6536 25.4607 12.6904 25.3365 12.7425C25.0882 12.8499 23.7569 12.9082 23.67 12.9604L23.5272 31.7535C22.1213 32.1739 20.582 32.8796 20.582 33.6681C20.582 34.9537 23.012 36 26.01 36C29.0079 36 31.4379 34.9599 31.4379 33.6743C31.4379 33.5454 31.4069 33.4227 31.3603 33.2999C32.3224 32.9747 32.94 32.4746 32.94 31.91Z" fill="#29B6F6"/>
<path d="M25.0697 30.6428C25.0976 31.64 24.4893 32.5421 23.5521 32.9133C22.4131 33.3644 21.3269 33.9995 22.9531 34.38C22.9531 34.38 24.179 34.9752 24.8028 34.6653C25.0821 34.5272 24.9859 34.3002 24.7935 34.0946C24.5825 33.8706 24.688 33.5086 24.989 33.4411L25.2559 33.3828C25.9325 33.2355 26.4073 32.631 26.3887 31.9468L25.889 11.8098L24.868 11.7269L25.0697 30.6428Z" fill="#81D4FA"/>
<path d="M12.811 31.7535L12.6714 12.9972C12.5193 12.9297 12.2586 13.8164 12.2214 13.7704C12.2027 13.7489 12.181 13.7213 12.1562 13.6876C12.1283 13.6538 12.1003 13.617 12.0755 13.5986C12.0227 13.5464 11.9576 13.482 11.8831 13.4083C11.8055 13.3316 11.7124 13.2488 11.6162 13.166C11.4176 13.0003 11.1817 12.8469 10.9334 12.7395C10.6852 12.6382 10.4338 12.5768 10.1762 12.5799H10.1358L10.0459 12.583C9.96516 12.583 9.98068 12.5891 9.95585 12.5922C9.93413 12.5891 9.84723 12.6106 9.78826 12.6198C9.66413 12.6505 9.53378 12.6873 9.40964 12.7395C9.16137 12.8469 8.92551 13.0003 8.72688 13.166C8.53137 13.3316 8.36688 13.4943 8.25516 13.617C8.14344 13.7428 8.07826 13.8134 8.07826 13.8134L7.98516 13.9177C7.97585 13.9269 7.96654 13.933 7.95723 13.9422L7.28688 30.1335C5.12068 30.1826 3.40137 30.9588 3.40137 31.9008C3.40137 32.4654 4.01895 32.9716 4.97792 33.2938C4.93137 33.4165 4.90033 33.5423 4.90033 33.6712C4.90033 34.9568 7.33033 36 10.3283 36C13.3262 36 15.7562 34.9507 15.7562 33.6651C15.7562 32.8765 14.2138 32.1739 12.811 31.7535Z" fill="#29B6F6"/>
<path d="M9.20172 12.9297L8.65862 29.8849C8.6431 30.3789 8.22413 30.7655 7.72758 30.744C7.08207 30.7164 6.19758 30.7901 5.47138 31.235C5.08034 31.4743 4.91896 32.0849 5.27586 32.4254C5.66689 32.7967 6.69103 32.4745 7.2031 32.4224C7.42655 32.4009 7.72138 32.4224 7.78034 32.6372C7.81448 32.7599 7.74 32.8918 7.63758 32.9655C7.53517 33.0422 7.40793 33.0729 7.28379 33.1097C7.07896 33.168 6.87413 33.2385 6.71276 33.3766C6.55448 33.5147 6.45207 33.7356 6.50793 33.9381C6.58241 34.1989 6.87413 34.3247 7.13172 34.4137C7.58482 34.5763 8.04724 34.7389 8.52827 34.7604C8.5562 34.4229 8.02551 34.1897 8.13103 33.8675C8.16827 33.754 8.27689 33.6804 8.38551 33.6282C8.67724 33.4932 9.00931 33.4656 9.32276 33.392C9.83793 33.2723 10.769 33.0146 10.5269 32.315C10.4462 32.0849 10.2817 31.8977 10.1421 31.6952C9.61758 30.9281 9.51517 30.2531 9.60827 29.3326C9.68276 28.6147 9.86896 17.2529 9.9931 12.5799C10.0241 11.46 9.65482 12.4909 9.28551 12.5185C9.25448 12.5584 9.23276 12.8928 9.20172 12.9297Z" fill="#81D4FA"/>
<path d="M13.3448 14.5528L13.2827 14.4915C13.2517 14.4608 13.1586 14.3687 13.1276 14.338C13.0655 14.2767 13.0034 14.246 12.9103 14.154C12.8172 14.0926 12.7241 14.0005 12.6 13.9392C12.4759 13.8778 12.3517 13.7858 12.2276 13.7244C12.1034 13.663 11.9483 13.6017 11.7931 13.5403C11.6379 13.4789 11.4827 13.4482 11.3276 13.4176C11.1724 13.3869 11.0172 13.3869 10.831 13.3869H10.769H10.6759C10.5827 13.3869 10.5827 13.3869 10.5517 13.3869C10.4896 13.3869 10.3965 13.4176 10.3345 13.4176C10.1793 13.4482 10.0241 13.4789 9.86896 13.5403C9.71378 13.6017 9.55861 13.6323 9.43447 13.7244C9.31033 13.7858 9.1862 13.8471 9.06206 13.9392C8.84482 14.0926 8.65861 14.246 8.53447 14.338C8.41033 14.4608 8.34827 14.5221 8.34827 14.5221L8.2862 14.5835C7.91378 14.9517 7.29309 14.9517 6.85861 14.6449C6.54827 14.3994 6.45516 13.9699 6.61033 13.663L6.64137 13.571C6.6724 13.5096 6.70344 13.4176 6.76551 13.3255C6.88964 13.1107 7.10689 12.8039 7.44827 12.4664C7.60344 12.313 7.82068 12.1289 8.03792 11.9755C8.25516 11.8221 8.53447 11.6687 8.81378 11.5459C9.09309 11.4232 9.43447 11.3005 9.74482 11.2391C9.89999 11.2084 10.0862 11.1777 10.2724 11.147C10.3655 11.147 10.4896 11.1164 10.5207 11.1164H10.769C11.1103 11.1164 11.4517 11.147 11.7931 11.2084C12.1345 11.2698 12.4448 11.3925 12.7241 11.5152C13.0034 11.638 13.2827 11.7914 13.5 11.9448C13.7483 12.0982 13.9345 12.2516 14.0896 12.4357C14.2448 12.5891 14.4 12.7425 14.4931 12.896C14.5552 12.9573 14.5862 13.0494 14.6483 13.1107C14.6793 13.1721 14.7414 13.2335 14.7724 13.2948C14.8655 13.4176 14.8655 13.4789 14.8965 13.5403C14.9276 13.6017 14.9276 13.6017 14.9276 13.6017C15.1448 14.0619 14.8965 14.5835 14.369 14.7676C14.0896 14.921 13.6241 14.829 13.3448 14.5528Z" fill="#422B0D"/>
<path d="M27.9032 14.4424C27.9032 14.4424 27.8815 14.4209 27.8411 14.381C27.807 14.3473 27.7294 14.2613 27.6829 14.2276C27.6239 14.1785 27.5525 14.1202 27.4687 14.0527C27.3787 13.9852 27.2763 13.9116 27.1646 13.8349C27.0498 13.7643 26.9256 13.6906 26.7922 13.6262C26.6618 13.5556 26.5129 13.5065 26.3639 13.4513C26.2149 13.3992 26.0567 13.3715 25.8984 13.3378C25.7401 13.3132 25.5756 13.301 25.4111 13.301H25.4546H25.4515H25.4453H25.4329H25.408H25.3584L25.2622 13.304C25.1815 13.304 25.1691 13.3102 25.138 13.3132C25.0884 13.3132 24.9984 13.3286 24.9208 13.3409C24.7625 13.3746 24.6042 13.4022 24.4553 13.4544C24.3094 13.5096 24.1604 13.5587 24.0301 13.6293C23.8967 13.6968 23.7725 13.7673 23.6577 13.8379C23.4342 13.9852 23.2511 14.1325 23.1301 14.2429C23.006 14.3534 22.9346 14.4209 22.9346 14.4209L22.857 14.4976C22.4815 14.8566 21.8484 14.8781 21.4387 14.5498C21.116 14.289 21.0353 13.887 21.1967 13.5526C21.1967 13.5526 21.2122 13.5219 21.2432 13.4605C21.2742 13.4022 21.3115 13.3102 21.3798 13.2028C21.507 12.9849 21.718 12.6781 22.0532 12.3559C22.2208 12.1964 22.4163 12.0276 22.6491 11.8742C22.8756 11.7147 23.1394 11.5705 23.4311 11.4447C23.7229 11.3219 24.0394 11.2146 24.3746 11.147C24.5453 11.1164 24.7036 11.0857 24.9115 11.0673C25.0077 11.0581 25.1225 11.0489 25.1722 11.0458L25.4111 11.0366C25.7618 11.0427 26.1094 11.0795 26.4477 11.144C26.7829 11.2115 27.0994 11.3189 27.3911 11.4416C27.6798 11.5674 27.9467 11.7116 28.1732 11.8712C28.406 12.0246 28.5984 12.1903 28.766 12.3529C28.9336 12.5124 29.067 12.672 29.1787 12.8162C29.2315 12.8898 29.2811 12.9573 29.3277 13.0218C29.3711 13.0923 29.4146 13.1568 29.4487 13.2151C29.5325 13.3439 29.5387 13.393 29.5698 13.4513C29.5915 13.5004 29.6039 13.528 29.6039 13.528C29.8118 13.9852 29.5604 14.5037 29.0422 14.6878C28.6356 14.832 28.1794 14.7216 27.9032 14.4424Z" fill="#422B0D"/>
<defs>
<radialGradient id="paint0_radial_73_219" cx="0" cy="0" r="1" gradientUnits="userSpaceOnUse" gradientTransform="translate(18 17.1516) scale(17.6771 17.4768)">
<stop offset="0.5" stop-color="#FDE030"/>
<stop offset="0.9188" stop-color="#F7C02B"/>
<stop offset="1" stop-color="#F4A223"/>
</radialGradient>
<radialGradient id="paint1_radial_73_219" cx="0" cy="0" r="1" gradientUnits="userSpaceOnUse" gradientTransform="translate(18 17.1516) scale(17.6771 17.4768)">
<stop offset="0.5" stop-color="#FDE030"/>
<stop offset="0.9188" stop-color="#F7C02B"/>
<stop offset="1" stop-color="#F4A223"/>
</radialGradient>
</defs>
</svg>
