<svg width="36" height="36" viewBox="0 0 36 36" fill="none" xmlns="http://www.w3.org/2000/svg">
<path d="M18 36C9.34138 36 0 30.3649 0 18C0 5.63506 9.34138 0 18 0C22.8103 0 27.2483 1.64222 30.5379 4.63685C34.1069 7.92129 36 12.5581 36 18C36 23.4419 34.1069 28.0465 30.5379 31.3309C27.2483 34.3256 22.7793 36 18 36Z" fill="url(#paint0_radial_73_242)"/>
<path d="M32.8623 7.29984C34.5164 10.0691 35.3792 13.3664 35.3792 17.034C35.3792 22.4759 33.4861 27.0805 29.9171 30.365C26.6274 33.3596 22.1585 35.034 17.3792 35.034C11.7743 35.034 5.89641 32.6673 2.42676 27.6472C5.76607 33.3338 12.0474 36 17.9999 36C22.7792 36 27.2481 34.3256 30.5378 31.331C34.1068 28.0465 35.9999 23.4419 35.9999 18C35.9999 13.8977 34.923 10.2526 32.8623 7.29984Z" fill="#EB8F00"/>
<path d="M14.7104 28.3363H21.538" stroke="#35220B" stroke-width="2" stroke-linecap="round" stroke-linejoin="round"/>
<path d="M13.6552 18.3542L13.5931 18.4186L13.4379 18.5796C13.3759 18.644 13.3138 18.6762 13.2207 18.7728C13.1214 18.8565 13.019 18.9306 12.9103 18.9982C12.7862 19.0626 12.6621 19.1592 12.5379 19.2236C12.4138 19.288 12.2586 19.3524 12.1034 19.4168C11.9514 19.4748 11.7962 19.5166 11.6379 19.5456C11.4734 19.5746 11.309 19.5843 11.1414 19.5778H10.8621C10.8 19.5778 10.7069 19.5456 10.6448 19.5456C10.4865 19.5166 10.3314 19.4748 10.1793 19.4168C10.0272 19.3717 9.88138 19.3073 9.74482 19.2236C9.61448 19.1592 9.49034 19.0851 9.37241 18.9982C9.15517 18.8372 8.96896 18.6762 8.84482 18.5796L8.65862 18.3864L8.59655 18.322C8.1962 17.9485 7.59724 17.9227 7.16896 18.2576C6.86793 18.5023 6.76551 18.9274 6.92069 19.288L6.95172 19.3846C6.98586 19.4748 7.02931 19.5585 7.07586 19.6422C7.26517 19.9739 7.49482 20.2766 7.75862 20.5438C7.94172 20.7306 8.14034 20.9045 8.34827 21.059C8.59344 21.2361 8.85103 21.3875 9.12413 21.5098C9.42207 21.6515 9.73551 21.7578 10.0552 21.8318C10.2103 21.864 10.3965 21.8962 10.5828 21.9284C10.6759 21.9284 10.8 21.9606 10.831 21.9606H11.0793C11.4238 21.9606 11.7652 21.9284 12.1034 21.864C12.4262 21.7964 12.7365 21.6869 13.0345 21.542C13.3076 21.4197 13.5652 21.2683 13.8103 21.0912C14.0338 20.9528 14.2324 20.7789 14.4 20.576C14.5521 20.4311 14.6886 20.2701 14.8034 20.093C14.8655 20.0286 14.8965 19.932 14.9586 19.8676C15.0207 19.8032 15.0517 19.7388 15.0828 19.6744C15.1355 19.5971 15.179 19.5102 15.2069 19.4168L15.2379 19.3524C15.4303 18.9016 15.2317 18.3703 14.7972 18.1707C14.76 18.1546 14.7197 18.1385 14.6793 18.1288C14.3255 17.9775 13.919 18.0676 13.6552 18.3542Z" fill="#422B0D"/>
<path d="M27.5926 18.4733L27.5305 18.5377C27.4809 18.5957 27.4281 18.6504 27.3723 18.6987L27.1581 18.8823C27.0681 18.9531 26.9657 19.0304 26.8478 19.1077C26.7299 19.1849 26.6088 19.259 26.4754 19.3298C26.3388 19.4007 26.1961 19.4619 26.0502 19.5134C25.8981 19.5617 25.743 19.6003 25.5847 19.6325C25.4233 19.6583 25.2619 19.6712 25.0974 19.6712H24.9516C24.8709 19.6712 24.8554 19.6712 24.8243 19.6712L24.6071 19.6422C24.4488 19.61 24.2936 19.5714 24.1416 19.5231C23.9926 19.4651 23.8499 19.3975 23.7102 19.3202C23.5767 19.2493 23.4526 19.1721 23.3378 19.098C23.1547 18.9724 22.984 18.8307 22.8226 18.6762L22.6271 18.4894L22.5495 18.4089C22.1523 18.0322 21.5533 18.0096 21.1312 18.3542C20.824 18.5989 20.7216 19.0368 20.8892 19.4007L20.9357 19.4973C20.9761 19.5907 21.0226 19.6808 21.0723 19.7678C21.3919 20.3216 21.8264 20.795 22.3416 21.1588C22.5867 21.3359 22.8474 21.4873 23.1205 21.6096C23.4247 21.7481 23.7412 21.8576 24.0671 21.9316C24.2378 21.9638 24.3961 21.996 24.604 22.0154C24.7002 22.0154 24.8119 22.0347 24.8616 22.0347H25.1036C25.4512 22.0282 25.7957 21.9928 26.1371 21.922C26.463 21.8479 26.7795 21.7384 27.0836 21.6C27.3567 21.4776 27.6174 21.3263 27.8626 21.1492C28.2474 20.8787 28.5888 20.5438 28.8712 20.1606L29.0202 19.9449L29.1443 19.742C29.1909 19.6647 29.2312 19.581 29.2654 19.4941L29.2995 19.4136C29.4857 18.9531 29.2747 18.4218 28.8309 18.2286C28.7999 18.2157 28.7688 18.2028 28.7378 18.1964C28.3374 18.0515 27.8905 18.161 27.5926 18.4733Z" fill="#422B0D"/>
<path d="M5.52422 12.8157C4.84146 12.9445 4.81043 13.9749 5.55526 14.0071C7.20008 14.0297 8.78905 13.3953 9.99319 12.2361C10.4525 11.824 10.8404 11.3345 11.1415 10.7871C11.3215 10.5198 11.2594 10.1528 11.0018 9.966C10.7442 9.77924 10.3904 9.84364 10.2104 10.1109L10.1794 10.1431C8.96284 11.5535 7.32112 12.497 5.52422 12.8157Z" fill="#422B0D"/>
<path d="M26.0379 10.1109C25.8579 9.84364 25.5041 9.77924 25.2465 9.966C24.9889 10.1528 24.9268 10.5198 25.1068 10.7871C25.4079 11.3345 25.7958 11.824 26.2551 12.2361C27.4654 13.3857 29.0513 14.02 30.693 14.0071C31.4689 13.9749 31.4068 12.9445 30.7241 12.8157C28.9054 12.5066 27.2513 11.5503 26.0379 10.1109Z" fill="#422B0D"/>
<defs>
<radialGradient id="paint0_radial_73_242" cx="0" cy="0" r="1" gradientUnits="userSpaceOnUse" gradientTransform="translate(18 18) scale(17.6771 18.3412)">
<stop offset="0.5" stop-color="#FDE030"/>
<stop offset="0.92" stop-color="#F7C02B"/>
<stop offset="1" stop-color="#F4A223"/>
</radialGradient>
</defs>
</svg>
