<svg width="36" height="36" viewBox="0 0 36 36" fill="none" xmlns="http://www.w3.org/2000/svg">
<path d="M18 36C9.34138 36 0 30.3649 0 18C0 5.63506 9.34138 0 18 0C22.8103 0 27.2483 1.64222 30.5379 4.63685C34.1069 7.92129 36 12.5581 36 18C36 23.4419 34.1069 28.0465 30.5379 31.3309C27.2483 34.3256 22.7793 36 18 36Z" fill="url(#paint0_radial_73_200)"/>
<path d="M32.8623 7.29984C34.5164 10.0691 35.3792 13.3664 35.3792 17.034C35.3792 22.4759 33.4861 27.0805 29.9171 30.365C26.6274 33.3596 22.1585 35.034 17.3792 35.034C11.7743 35.034 5.89641 32.6673 2.42676 27.6472C5.76607 33.3338 12.0474 36 17.9999 36C22.7792 36 27.2481 34.3256 30.5378 31.331C34.1068 28.0465 35.9999 23.4419 35.9999 18C35.9999 13.8977 34.923 10.2526 32.8623 7.29984Z" fill="#D84213"/>
<path d="M24.3125 30.9574C24.207 30.9156 24.1108 30.8479 24.0363 30.7578C21.0167 27.5023 16.0232 27.4025 12.8856 30.5356C12.8142 30.6097 12.7398 30.6837 12.6715 30.7578C12.597 30.8479 12.5008 30.9156 12.3953 30.9574C12.1625 31.0476 11.8987 30.9961 11.7125 30.8254C11.5294 30.658 11.4673 30.3907 11.5604 30.1556C12.4853 27.6923 15.2349 25.7603 18.3539 25.7603C21.4729 25.7603 24.2225 27.6923 25.1473 30.1524C25.2404 30.3875 25.1784 30.6547 24.9953 30.8222C24.8091 30.9928 24.5453 31.0444 24.3125 30.9574Z" fill="#422B0D"/>
<path d="M16.3056 19.9062C15.6104 18.9982 12.7459 17.2529 11.7125 16.7442C11.3276 16.5606 10.9273 16.4125 10.5176 16.303C10.4431 16.2805 10.3625 16.2708 10.2849 16.2708C9.87211 16.2805 9.51831 16.5864 9.43452 17.0082C9.33831 17.4461 9.55555 17.8969 9.95279 18.0773C10.44 18.3252 11.2904 18.7953 12.1718 19.3137C11.4362 19.7678 10.9862 20.5921 10.9862 21.4808V21.951C10.9862 23.2841 12.029 24.366 13.3138 24.366C14.5987 24.366 15.6414 23.2841 15.6414 21.951V21.4808C15.6414 21.4615 15.6414 21.4454 15.6414 21.4261C15.9735 21.4036 16.2714 21.1975 16.4173 20.8883C16.5693 20.5663 16.5259 20.1832 16.3056 19.9062Z" fill="#422B0D"/>
<path d="M27.2856 17.008C27.1987 16.5829 26.8387 16.2803 26.4197 16.277C26.3421 16.277 26.2615 16.2867 26.187 16.3092C25.7773 16.4155 25.377 16.5636 24.9921 16.7439C23.9587 17.2463 21.0942 18.998 20.399 19.8996C20.1787 20.1797 20.1414 20.5661 20.2966 20.8881C20.4456 21.2005 20.7404 21.4033 21.0756 21.4259V21.4806V21.9507C21.0756 23.2838 22.1183 24.3658 23.4032 24.3658C24.688 24.3658 25.7308 23.2838 25.7308 21.9507V21.4806C25.7308 20.5951 25.2808 19.774 24.5483 19.32C25.4297 18.8015 26.2801 18.3314 26.7673 18.0835C27.1677 17.9032 27.388 17.4491 27.2856 17.008Z" fill="#422B0D"/>
<path d="M13.1958 19.7871C12.7551 19.5681 12.2245 19.7613 12.0103 20.2186C11.8458 20.576 11.9203 21.0043 12.1965 21.2812C12.6372 21.5002 13.1679 21.307 13.382 20.8497C13.5465 20.4923 13.472 20.064 13.1958 19.7871Z" fill="#896024"/>
<path d="M23.2852 19.7871C22.8445 19.5681 22.3138 19.7613 22.0997 20.2186C21.9352 20.576 22.0097 21.0043 22.2859 21.2812C22.7266 21.5002 23.2573 21.307 23.4714 20.8497C23.6359 20.4923 23.5614 20.064 23.2852 19.7871Z" fill="#896024"/>
<defs>
<radialGradient id="paint0_radial_73_200" cx="0" cy="0" r="1" gradientUnits="userSpaceOnUse" gradientTransform="translate(18 18) scale(17.6771 18.3412)">
<stop offset="0.12" stop-color="#FAC742"/>
<stop offset="0.32" stop-color="#FAC440"/>
<stop offset="0.48" stop-color="#FBBA3B"/>
<stop offset="0.62" stop-color="#FBA931"/>
<stop offset="0.76" stop-color="#FC9224"/>
<stop offset="0.88" stop-color="#FE7413"/>
<stop offset="1" stop-color="#FF5100"/>
</radialGradient>
</defs>
</svg>
