<svg width="36" height="37" viewBox="0 0 36 37" fill="none" xmlns="http://www.w3.org/2000/svg">
<path d="M17.9999 36.5126C9.34135 36.5126 0 30.8775 0 18.5126C0 6.14764 9.34135 0.512573 17.9999 0.512573C22.8103 0.512573 27.2482 2.15479 30.5378 5.14942C34.1068 8.43386 35.9999 13.0707 35.9999 18.5126C35.9999 23.9544 34.1068 28.5591 30.5378 31.8435C27.2482 34.8382 22.7792 36.5126 17.9999 36.5126Z" fill="url(#paint0_radial_73_252)"/>
<path d="M32.8624 7.81244C34.5166 10.5817 35.3793 13.879 35.3793 17.5466C35.3793 22.9885 33.4862 27.5931 29.9173 30.8776C26.6276 33.8722 22.1587 35.5466 17.3794 35.5466C11.7746 35.5466 5.89665 33.1799 2.427 28.1598C5.7663 33.8464 12.0477 36.5126 18.0001 36.5126C22.7794 36.5126 27.2483 34.8382 30.538 31.8436C34.1069 28.5591 36 23.9545 36 18.5126C36 14.4103 34.9231 10.7652 32.8624 7.81244Z" fill="#EB8F00"/>
<path d="M25.8826 26.5948H10.3654C9.67954 26.5948 9.12402 26.0184 9.12402 25.3068C9.12402 24.5952 9.67954 24.0188 10.3654 24.0188H25.8826C26.5685 24.0188 27.124 24.5952 27.124 25.3068C27.124 26.0184 26.5685 26.5948 25.8826 26.5948Z" fill="#422B0D"/>
<path d="M12.1248 13.0514C10.8245 13.0514 9.64209 14.1913 9.64209 16.0847C9.64209 17.978 10.8245 19.1147 12.1248 19.1147C13.4252 19.1147 14.6076 17.9748 14.6076 16.0847C14.6076 14.1945 13.4252 13.0514 12.1248 13.0514Z" fill="#422B0D"/>
<path d="M12.0042 14.3169C11.5635 14.098 11.0328 14.2912 10.8187 14.7484C10.6542 15.1058 10.7287 15.5341 11.0049 15.811C11.4456 16.03 11.9763 15.8368 12.1904 15.3795C12.3549 15.0221 12.2804 14.5938 12.0042 14.3169Z" fill="#896024"/>
<path d="M24.0203 13.0514C22.72 13.0514 21.5376 14.1913 21.5376 16.0847C21.5376 17.978 22.72 19.1147 24.0203 19.1147C25.3207 19.1147 26.5031 17.9748 26.5031 16.0847C26.5031 14.1945 25.3269 13.0514 24.0203 13.0514Z" fill="#422B0D"/>
<path d="M23.9058 14.3169C23.4651 14.098 22.9344 14.2912 22.7203 14.7484C22.5558 15.1058 22.6303 15.5341 22.9065 15.811C23.3472 16.03 23.8779 15.8368 24.092 15.3795C24.2565 15.0221 24.182 14.5938 23.9058 14.3169Z" fill="#896024"/>
<defs>
<radialGradient id="paint0_radial_73_252" cx="0" cy="0" r="1" gradientUnits="userSpaceOnUse" gradientTransform="translate(17.9999 18.5125) scale(17.6771 18.3412)">
<stop offset="0.5" stop-color="#FDE030"/>
<stop offset="0.92" stop-color="#F7C02B"/>
<stop offset="1" stop-color="#F4A223"/>
</radialGradient>
</defs>
</svg>
