<svg width="36" height="36" viewBox="0 0 36 36" fill="none" xmlns="http://www.w3.org/2000/svg">
<path d="M18 36C9.34138 36 0 30.3649 0 18C0 5.63506 9.34138 0 18 0C22.8103 0 27.2483 1.64222 30.5379 4.63685C34.1069 7.92129 36 12.5581 36 18C36 23.4419 34.1069 28.0465 30.5379 31.3309C27.2483 34.3256 22.7793 36 18 36Z" fill="url(#paint0_radial_73_191)"/>
<path d="M11.9171 10.9288C10.6167 10.9288 9.43433 12.0687 9.43433 13.9621C9.43433 15.8555 10.6167 16.9922 11.9171 16.9922C13.2205 16.9922 14.3998 15.8523 14.3998 13.9621C14.3998 12.0719 13.2329 10.9288 11.9171 10.9288Z" fill="#422B0D"/>
<path d="M11.8086 12.1942C11.3679 11.9753 10.8373 12.1685 10.6231 12.6257C10.4586 12.9832 10.5331 13.4114 10.8093 13.6883C11.25 13.9073 11.7807 13.7141 11.9948 13.2569C12.1593 12.8994 12.0848 12.4712 11.8086 12.1942Z" fill="#896024"/>
<path d="M23.8343 10.9288C22.534 10.9288 21.3516 12.0687 21.3516 13.9621C21.3516 15.8555 22.534 16.9922 23.8343 16.9922C25.1347 16.9922 26.3171 15.8523 26.3171 13.9621C26.3171 12.0719 25.1347 10.9288 23.8343 10.9288Z" fill="#422B0D"/>
<path d="M23.7105 12.1942C23.2698 11.9753 22.7391 12.1685 22.525 12.6257C22.3605 12.9832 22.435 13.4114 22.7112 13.6883C23.1519 13.9073 23.6826 13.7141 23.8967 13.2569C24.0612 12.8994 23.9867 12.4712 23.7105 12.1942Z" fill="#896024"/>
<path d="M17.8141 27.2447C14.9992 27.2673 12.3117 26.0404 10.4279 23.8701C10.2851 23.6995 10.251 23.458 10.341 23.2519C10.431 23.0426 10.6296 22.9073 10.8499 22.9041C10.9492 22.9041 11.0485 22.9331 11.1354 22.9846C12.6313 23.8766 15.1327 24.9843 17.8141 24.9843H17.8575C20.5358 24.9843 23.0403 23.8766 24.533 22.9846C24.6199 22.9331 24.7192 22.9041 24.8186 22.9041C25.0389 22.9073 25.2375 23.0426 25.3275 23.2519C25.4206 23.458 25.3865 23.6995 25.2406 23.8701C23.3568 26.0404 20.663 27.2705 17.8482 27.2447" fill="#422B0D"/>
<path d="M32.862 7.29974C34.5162 10.069 35.3789 13.3663 35.3789 17.0339C35.3789 22.4758 33.4858 27.0804 29.9169 30.3649C26.6272 33.3595 22.1582 35.0339 17.3789 35.0339C11.7741 35.0339 5.89617 32.6672 2.42651 27.6472C5.76582 33.3337 12.0472 35.9999 17.9996 35.9999C22.7789 35.9999 27.2479 34.3255 30.5375 31.3309C34.1065 28.0464 35.9996 23.4418 35.9996 17.9999C35.9996 13.8976 34.9227 10.2525 32.862 7.29974Z" fill="#EB8F00"/>
<defs>
<radialGradient id="paint0_radial_73_191" cx="0" cy="0" r="1" gradientUnits="userSpaceOnUse" gradientTransform="translate(18 18) scale(17.6771 18.3412)">
<stop offset="0.5" stop-color="#FDE030"/>
<stop offset="0.92" stop-color="#F7C02B"/>
<stop offset="1" stop-color="#F4A223"/>
</radialGradient>
</defs>
</svg>
