<svg width="24" height="24" viewBox="0 0 24 24" fill="none" xmlns="http://www.w3.org/2000/svg">
<g id="woman_24dp_5F6368_FILL0_wght400_GRAD0_opsz24 1">
<path id="Vector" d="M12.0002 6.5C12.5291 6.5 13.0178 6.64416 13.4526 6.93397C13.8873 7.22379 14.2083 7.61949 14.4118 8.10769L14.4153 8.11618L14.4152 8.11621L16.9145 14.4393C16.9146 14.4397 16.9148 14.4401 16.9149 14.4405C17.1086 14.9256 17.0585 15.4138 16.7626 15.8453C16.4705 16.2712 16.0421 16.5 15.5252 16.5H14.5002V21C14.5002 21.4092 14.3563 21.776 14.0663 22.0661C13.7762 22.3561 13.4095 22.5 13.0002 22.5H11.0002C10.591 22.5 10.2242 22.3561 9.93416 22.0661C9.6441 21.776 9.50022 21.4092 9.50022 21V16.5H8.47521C7.9583 16.5 7.52992 16.2712 7.23785 15.8453C6.94193 15.4137 6.89184 14.9255 7.08557 14.4403C7.0857 14.44 7.08584 14.4396 7.08598 14.4393L9.58522 8.11621L9.5886 8.10766L9.58868 8.10769C9.7921 7.61949 10.1131 7.22379 10.5479 6.93397C10.9826 6.64416 11.4713 6.5 12.0002 6.5ZM12.0002 6.5C12.6839 6.5 13.2816 6.25074 13.7663 5.76605C14.251 5.28137 14.5002 4.68366 14.5002 4C14.5002 3.31634 14.251 2.71863 13.7663 2.23395C13.2816 1.74926 12.6839 1.5 12.0002 1.5C11.3166 1.5 10.7188 1.74926 10.2342 2.23395C9.74947 2.71863 9.50022 3.31634 9.50022 4C9.50022 4.68366 9.74947 5.28137 10.2342 5.76605C10.7188 6.25074 11.3166 6.5 12.0002 6.5Z" fill="currentColor" stroke="currentColor"/>
</g>
</svg>
