<svg width="32" height="32" viewBox="0 0 32 32" fill="none" xmlns="http://www.w3.org/2000/svg">
<path d="M12.7599 16.6133L8.69324 20.68" stroke="#B3B1B1" stroke-width="1.5" stroke-miterlimit="10" stroke-linecap="round" stroke-linejoin="round"/>
<path d="M8.7334 16.6533L12.8001 20.72" stroke="#B3B1B1" stroke-width="1.5" stroke-miterlimit="10" stroke-linecap="round" stroke-linejoin="round"/>
<path d="M18.04 18.6667H18.0548" stroke="#B3B1B1" stroke-width="2" stroke-miterlimit="10" stroke-linecap="round" stroke-linejoin="round"/>
<path d="M23.2933 18.6667H23.3081" stroke="#B3B1B1" stroke-width="2" stroke-miterlimit="10" stroke-linecap="round" stroke-linejoin="round"/>
<path d="M20.6666 21.3081V21.28" stroke="#B3B1B1" stroke-width="2" stroke-miterlimit="10" stroke-linecap="round" stroke-linejoin="round"/>
<path d="M20.6666 16.0548V16.0267" stroke="#B3B1B1" stroke-width="2" stroke-miterlimit="10" stroke-linecap="round" stroke-linejoin="round"/>
<path d="M12 29.3333H20C26.6666 29.3333 29.3333 26.6667 29.3333 20V17.3333C29.3333 10.6667 26.6666 8 20 8H12C5.33329 8 2.66663 10.6667 2.66663 17.3333V20C2.66663 26.6667 5.33329 29.3333 12 29.3333Z" stroke="#B3B1B1" stroke-width="1.5" stroke-linecap="round" stroke-linejoin="round"/>
<path d="M17.3466 2.66669L17.3332 4.01335C17.3199 4.74669 16.7332 5.33335 15.9999 5.33335H15.9599C15.2266 5.33335 14.6399 5.93335 14.6399 6.66669C14.6399 7.40002 15.2399 8.00002 15.9732 8.00002H17.3066" stroke="#B3B1B1" stroke-width="1.5" stroke-linecap="round" stroke-linejoin="round"/>
</svg>
