<svg width="15" height="16" viewBox="0 0 15 16" fill="none" xmlns="http://www.w3.org/2000/svg">
<g id="Group 7">
<path id="Vector" d="M12.3333 7.375H2.41667C1.63426 7.375 1 8.00926 1 8.79167V13.75C1 14.5324 1.63426 15.1667 2.41667 15.1667H12.3333C13.1157 15.1667 13.75 14.5324 13.75 13.75V8.79167C13.75 8.00926 13.1157 7.375 12.3333 7.375Z" stroke="#515151" stroke-width="1.3" stroke-linecap="round" stroke-linejoin="round"/>
<path id="Vector_2" d="M3.83337 7.375V4.54167C3.83337 3.60236 4.20651 2.70152 4.8707 2.03733C5.5349 1.37314 6.43573 1 7.37504 1C8.31435 1 9.21519 1.37314 9.87938 2.03733C10.5436 2.70152 10.9167 3.60236 10.9167 4.54167V7.375" stroke="#515151" stroke-width="1.3" stroke-linecap="round" stroke-linejoin="round"/>
</g>
</svg>
