<svg width="20" height="20" viewBox="0 0 20 20" fill="none" xmlns="http://www.w3.org/2000/svg">
<path d="M6.04169 7.59625V2.5C6.04169 2.32292 6.10162 2.17451 6.22148 2.05479C6.34134 1.93493 6.48981 1.875 6.6669 1.875C6.84412 1.875 6.99252 1.93493 7.11211 2.05479C7.23183 2.17451 7.29169 2.32292 7.29169 2.5V7.59625H8.44565V2.5C8.44565 2.32292 8.50551 2.17451 8.62523 2.05479C8.74509 1.93493 8.89363 1.875 9.07086 1.875C9.24794 1.875 9.39634 1.93493 9.51606 2.05479C9.63565 2.17451 9.69544 2.32292 9.69544 2.5V7.59625C9.69544 8.34194 9.46391 8.98375 9.00086 9.52167C8.53766 10.0596 7.96794 10.4017 7.29169 10.5481V17.5C7.29169 17.6771 7.23176 17.8255 7.1119 17.9452C6.99204 18.0651 6.84356 18.125 6.66648 18.125C6.48926 18.125 6.34086 18.0651 6.22127 17.9452C6.10155 17.8255 6.04169 17.6771 6.04169 17.5V10.5481C5.36544 10.4017 4.79572 10.0596 4.33252 9.52167C3.86947 8.98375 3.63794 8.34194 3.63794 7.59625V2.5C3.63794 2.32292 3.69787 2.17451 3.81773 2.05479C3.93745 1.93493 4.08593 1.875 4.26315 1.875C4.44023 1.875 4.58863 1.93493 4.70836 2.05479C4.82794 2.17451 4.88773 2.32292 4.88773 2.5V7.59625H6.04169ZM14.0544 11.4583H12.5331C12.3177 11.4583 12.1381 11.3862 11.9944 11.2419C11.8508 11.0974 11.779 10.9185 11.779 10.7052V5.83333C11.779 4.78625 12.0818 3.86479 12.6875 3.06896C13.2932 2.27299 13.9086 1.875 14.5336 1.875C14.7676 1.875 14.9546 1.95889 15.0946 2.12667C15.2345 2.29431 15.3044 2.50479 15.3044 2.75813V17.5C15.3044 17.6771 15.2445 17.8255 15.1246 17.9452C15.0049 18.0651 14.8564 18.125 14.6792 18.125C14.5021 18.125 14.3537 18.0651 14.234 17.9452C14.1143 17.8255 14.0544 17.6771 14.0544 17.5V11.4583Z" fill="#292D32"/>
</svg>
