<svg width="16" height="16" viewBox="0 0 16 16" fill="none" xmlns="http://www.w3.org/2000/svg">
<g id="iconfinder_Mail_728953 1">
<g id="Group">
<g id="Group_2">
<path id="Vector" d="M2.64644 10.6465L5.58494 7.7085L2.68744 5.39063C2.47206 5.21775 2.43694 4.90338 2.60931 4.68751C2.78219 4.47313 3.09569 4.43701 3.31244 4.60938L7.99994 8.35988L12.6874 4.60938C12.9033 4.43701 13.2177 4.47313 13.3906 4.68751C13.5629 4.90338 13.5278 5.21775 13.3124 5.39063L10.4154 7.7085L13.3534 10.6465C13.5488 10.8419 13.5488 11.1583 13.3534 11.3535C13.2558 11.4511 13.1278 11.5 12.9999 11.5C12.8721 11.5 12.7441 11.4511 12.6464 11.3535L9.64644 8.3535C9.64057 8.34763 9.63857 8.33988 9.63332 8.334L8.31244 9.39063C8.22119 9.46338 8.11032 9.5 7.99994 9.5C7.88956 9.5 7.77869 9.46338 7.68744 9.39063L6.36669 8.334C6.36131 8.33988 6.35932 8.34763 6.35357 8.3535L3.35357 11.3535C3.25581 11.4511 3.12781 11.5 2.99994 11.5C2.87206 11.5 2.74406 11.4511 2.64644 11.3535C2.45106 11.1583 2.45106 10.8418 2.64644 10.6465Z" fill="#515151"/>
</g>
</g>
<path id="Vector_2" d="M3 2H13C14.6567 2 16 3.34325 16 5V11C16 12.6567 14.6567 14 13 14H3C1.34325 14 0 12.6567 0 11V5C0 3.34325 1.34325 2 3 2ZM1 11C1 12.103 1.897 13 3 13H13C14.103 13 15 12.103 15 11V5C15 3.897 14.103 3 13 3H3C1.897 3 1 3.897 1 5V11Z" fill="#515151"/>
</g>
</svg>
