<svg width="24" height="24" viewBox="0 0 24 24" fill="none" xmlns="http://www.w3.org/2000/svg">
<g id="man_24dp_5F6368_FILL0_wght400_GRAD0_opsz24 1">
<path id="Vector" d="M9 15.25H9.75V21C9.75 21.3463 9.86986 21.6484 10.1107 21.8893C10.3516 22.1301 10.6537 22.25 11 22.25H13C13.3463 22.25 13.6484 22.1301 13.8893 21.8893C14.1301 21.6484 14.25 21.3463 14.25 21V15.25H15C15.3463 15.25 15.6484 15.1301 15.8893 14.8893C16.1301 14.6484 16.25 14.3463 16.25 14V9C16.25 8.38317 16.0275 7.8489 15.5893 7.41072C15.1511 6.97255 14.6168 6.75 14 6.75H10C9.38317 6.75 8.8489 6.97255 8.41072 7.41072C7.97255 7.8489 7.75 8.38317 7.75 9V14C7.75 14.3463 7.86986 14.6484 8.11072 14.8893C8.35159 15.1301 8.65371 15.25 9 15.25ZM10.4107 5.58928C10.8489 6.02745 11.3832 6.25 12 6.25C12.6168 6.25 13.1511 6.02745 13.5893 5.58928C14.0275 5.1511 14.25 4.61683 14.25 4C14.25 3.38317 14.0275 2.8489 13.5893 2.41072C13.1511 1.97255 12.6168 1.75 12 1.75C11.3832 1.75 10.8489 1.97255 10.4107 2.41072C9.97255 2.8489 9.75 3.38317 9.75 4C9.75 4.61683 9.97255 5.1511 10.4107 5.58928Z" fill="currentColor" stroke="currentColor" stroke-width="0.5"/>
</g>
</svg>
