<svg width="16" height="16" viewBox="0 0 16 16" fill="none" xmlns="http://www.w3.org/2000/svg">
<g id="vuesax/linear/book">
<g id="book">
<path id="Vector" d="M14.6668 11.16V3.1133C14.6668 2.3133 14.0135 1.71996 13.2202 1.78663H13.1802C11.7802 1.90663 9.6535 2.61996 8.46683 3.36663L8.3535 3.43996C8.16016 3.55996 7.84016 3.55996 7.64683 3.43996L7.48016 3.33996C6.2935 2.59996 4.1735 1.8933 2.7735 1.77996C1.98016 1.7133 1.3335 2.3133 1.3335 3.10663V11.16C1.3335 11.8 1.8535 12.4 2.4935 12.48L2.68683 12.5066C4.1335 12.7 6.36683 13.4333 7.64683 14.1333L7.6735 14.1466C7.8535 14.2466 8.14016 14.2466 8.3135 14.1466C9.5935 13.44 11.8335 12.7 13.2868 12.5066L13.5068 12.48C14.1468 12.4 14.6668 11.8 14.6668 11.16Z" stroke="#292D32" stroke-linecap="round" stroke-linejoin="round"/>
<path id="Vector_2" d="M8 3.66003V13.66" stroke="#292D32" stroke-linecap="round" stroke-linejoin="round"/>
<path id="Vector_3" d="M5.1665 5.66003H3.6665" stroke="#292D32" stroke-linecap="round" stroke-linejoin="round"/>
<path id="Vector_4" d="M5.6665 7.66003H3.6665" stroke="#292D32" stroke-linecap="round" stroke-linejoin="round"/>
</g>
</g>
</svg>
