<svg width="25" height="24" viewBox="0 0 25 24" fill="none" xmlns="http://www.w3.org/2000/svg">
<g id="Icodfn">
<path id="qrcode-scan" fill-rule="evenodd" clip-rule="evenodd" d="M8.5 21H4.5C3.94772 21 3.5 20.5523 3.5 20V16C3.5 15.4477 3.05228 15 2.5 15C1.94772 15 1.5 15.4477 1.5 16V20C1.5 21.6569 2.84315 23 4.5 23H8.5C9.05228 23 9.5 22.5523 9.5 22C9.5 21.4477 9.05228 21 8.5 21ZM22.5 15C21.9477 15 21.5 15.4477 21.5 16V20C21.5 20.5523 21.0523 21 20.5 21H16.5C15.9477 21 15.5 21.4477 15.5 22C15.5 22.5523 15.9477 23 16.5 23H20.5C22.1569 23 23.5 21.6569 23.5 20V16C23.5 15.4477 23.0523 15 22.5 15ZM20.5 1H16.5C15.9477 1 15.5 1.44772 15.5 2C15.5 2.55228 15.9477 3 16.5 3H20.5C21.0523 3 21.5 3.44772 21.5 4V8C21.5 8.55228 21.9477 9 22.5 9C23.0523 9 23.5 8.55228 23.5 8V4C23.5 2.34315 22.1569 1 20.5 1ZM2.5 9C3.05228 9 3.5 8.55228 3.5 8V4C3.5 3.44772 3.94772 3 4.5 3H8.5C9.05228 3 9.5 2.55228 9.5 2C9.5 1.44772 9.05228 1 8.5 1H4.5C2.84315 1 1.5 2.34315 1.5 4V8C1.5 8.55228 1.94772 9 2.5 9ZM10.5 5H6.5C5.94772 5 5.5 5.44772 5.5 6V10C5.5 10.5523 5.94772 11 6.5 11H10.5C11.0523 11 11.5 10.5523 11.5 10V6C11.5 5.44772 11.0523 5 10.5 5ZM9.5 9H7.5V7H9.5V9ZM14.5 11H18.5C19.0523 11 19.5 10.5523 19.5 10V6C19.5 5.44772 19.0523 5 18.5 5H14.5C13.9477 5 13.5 5.44772 13.5 6V10C13.5 10.5523 13.9477 11 14.5 11ZM15.5 7H17.5V9H15.5V7ZM10.5 13H6.5C5.94772 13 5.5 13.4477 5.5 14V18C5.5 18.5523 5.94772 19 6.5 19H10.5C11.0523 19 11.5 18.5523 11.5 18V14C11.5 13.4477 11.0523 13 10.5 13ZM9.5 17H7.5V15H9.5V17ZM14.5 16C15.0523 16 15.5 15.5523 15.5 15C16.0523 15 16.5 14.5523 16.5 14C16.5 13.4477 16.0523 13 15.5 13H14.5C13.9477 13 13.5 13.4477 13.5 14V15C13.5 15.5523 13.9477 16 14.5 16ZM18.5 13C17.9477 13 17.5 13.4477 17.5 14V17C16.9477 17 16.5 17.4477 16.5 18C16.5 18.5523 16.9477 19 17.5 19H18.5C19.0523 19 19.5 18.5523 19.5 18V14C19.5 13.4477 19.0523 13 18.5 13ZM14.5 17C13.9477 17 13.5 17.4477 13.5 18C13.5 18.5523 13.9477 19 14.5 19C15.0523 19 15.5 18.5523 15.5 18C15.5 17.4477 15.0523 17 14.5 17Z" fill="#C5C5C5"/>
</g>
</svg>
