<svg width="16" height="16" viewBox="0 0 16 16" fill="none" xmlns="http://www.w3.org/2000/svg">
<g id="subscriptions_24dp_5F6368_FILL0_wght400_GRAD0_opsz24 1">
<path id="Vector" d="M2.66683 14.6667C2.30016 14.6667 1.98627 14.5361 1.72516 14.275C1.46405 14.0139 1.3335 13.7 1.3335 13.3333V6.66666C1.3335 6.29999 1.46405 5.98611 1.72516 5.72499C1.98627 5.46388 2.30016 5.33333 2.66683 5.33333H13.3335C13.7002 5.33333 14.0141 5.46388 14.2752 5.72499C14.5363 5.98611 14.6668 6.29999 14.6668 6.66666V13.3333C14.6668 13.7 14.5363 14.0139 14.2752 14.275C14.0141 14.5361 13.7002 14.6667 13.3335 14.6667H2.66683ZM2.66683 13.3333H13.3335V6.66666H2.66683V13.3333ZM7.1835 12.3167L10.2502 10.2833C10.3502 10.2167 10.4002 10.1222 10.4002 9.99999C10.4002 9.87777 10.3502 9.78333 10.2502 9.71666L7.1835 7.68333C7.07238 7.60555 6.9585 7.59722 6.84183 7.65833C6.72516 7.71944 6.66683 7.81666 6.66683 7.94999V12.05C6.66683 12.1833 6.72516 12.2806 6.84183 12.3417C6.9585 12.4028 7.07238 12.3944 7.1835 12.3167ZM3.3335 4.66666C3.14461 4.66666 2.98627 4.60277 2.8585 4.47499C2.73072 4.34722 2.66683 4.18888 2.66683 3.99999C2.66683 3.81111 2.73072 3.65277 2.8585 3.52499C2.98627 3.39722 3.14461 3.33333 3.3335 3.33333H12.6668C12.8557 3.33333 13.0141 3.39722 13.1418 3.52499C13.2696 3.65277 13.3335 3.81111 13.3335 3.99999C13.3335 4.18888 13.2696 4.34722 13.1418 4.47499C13.0141 4.60277 12.8557 4.66666 12.6668 4.66666H3.3335ZM5.3335 2.66666C5.14461 2.66666 4.98627 2.60277 4.8585 2.47499C4.73072 2.34722 4.66683 2.18888 4.66683 1.99999C4.66683 1.81111 4.73072 1.65277 4.8585 1.52499C4.98627 1.39722 5.14461 1.33333 5.3335 1.33333H10.6668C10.8557 1.33333 11.0141 1.39722 11.1418 1.52499C11.2696 1.65277 11.3335 1.81111 11.3335 1.99999C11.3335 2.18888 11.2696 2.34722 11.1418 2.47499C11.0141 2.60277 10.8557 2.66666 10.6668 2.66666H5.3335Z" fill="#344054"/>
</g>
</svg>
