<svg width="24" height="24" viewBox="0 0 24 24" fill="none" xmlns="http://www.w3.org/2000/svg">
<g id="visa 1">
<path id="Vector" d="M13.967 13.837C13.201 13.837 12.781 13.732 12.136 13.467L11.897 13.358L11.626 14.933C12.092 15.125 12.932 15.29 13.801 15.303C15.842 15.303 17.176 14.356 17.192 12.899C17.208 12.098 16.682 11.49 15.571 10.989C14.897 10.664 14.477 10.446 14.477 10.116C14.477 9.82399 14.836 9.51299 15.586 9.51299C16.0844 9.501 16.5798 9.5926 17.041 9.78199L17.221 9.86199L17.492 8.33999L17.445 8.34999C16.8869 8.14967 16.2979 8.04914 15.705 8.05299C13.785 8.05299 12.43 9.00699 12.42 10.374C12.408 11.379 13.384 11.945 14.121 12.282C14.878 12.627 15.131 12.844 15.129 13.154C15.124 13.625 14.524 13.837 13.967 13.837ZM22.428 8.18199H20.928C20.461 8.18199 20.112 8.30699 19.907 8.76499L17.022 15.205H19.063L19.471 14.151L21.961 14.153C22.022 14.399 22.201 15.205 22.201 15.205H24L22.428 8.18199ZM20.03 12.71L20.804 10.747C20.794 10.767 20.964 10.341 21.062 10.077L21.195 10.683L21.644 12.71H20.03ZM8.444 15.149H10.388L11.603 8.12299H9.66V8.12099L8.444 15.149ZM4.923 12.971L4.721 11.995V11.998L4.039 8.77199C3.922 8.32499 3.58 8.19299 3.156 8.17699H0.025L0 8.32499C0.705 8.48999 1.34 8.72899 1.908 9.02199C1.9962 9.07356 2.06079 9.15752 2.088 9.25599L3.768 15.195H5.822L8.883 8.18199H6.824L4.923 12.971Z" fill="#191E6E"/>
</g>
</svg>
